<svg width="938" height="197" viewBox="0 0 938 197" fill="none" xmlns="http://www.w3.org/2000/svg">
<path d="M117.743 72.84C113.543 72.84 109.973 72.0933 107.033 70.6C104.14 69.1067 101.643 67.1467 99.5435 64.72L105.773 58.7C107.453 60.66 109.32 62.1533 111.373 63.18C113.473 64.2067 115.783 64.72 118.303 64.72C121.15 64.72 123.297 64.1133 124.743 62.9C126.19 61.64 126.913 59.96 126.913 57.86C126.913 56.2267 126.447 54.8967 125.513 53.87C124.58 52.8433 122.83 52.0967 120.263 51.63L115.643 50.93C105.89 49.39 101.013 44.6533 101.013 36.72C101.013 34.5267 101.41 32.5433 102.203 30.77C103.043 28.9967 104.233 27.48 105.773 26.22C107.313 24.96 109.157 24.0033 111.303 23.35C113.497 22.65 115.97 22.3 118.723 22.3C122.41 22.3 125.63 22.9067 128.383 24.12C131.137 25.3333 133.493 27.13 135.453 29.51L129.153 35.46C127.94 33.9667 126.47 32.7533 124.743 31.82C123.017 30.8867 120.847 30.42 118.233 30.42C115.573 30.42 113.567 30.9333 112.213 31.96C110.907 32.94 110.253 34.34 110.253 36.16C110.253 38.0267 110.79 39.4033 111.863 40.29C112.937 41.1767 114.663 41.83 117.043 42.25L121.593 43.09C126.54 43.9767 130.18 45.5633 132.513 47.85C134.893 50.09 136.083 53.24 136.083 57.3C136.083 59.6333 135.663 61.7567 134.823 63.67C134.03 65.5367 132.84 67.17 131.253 68.57C129.713 69.9233 127.8 70.9733 125.513 71.72C123.273 72.4667 120.683 72.84 117.743 72.84ZM149.266 30.14C147.4 30.14 146.046 29.72 145.206 28.88C144.413 28.04 144.016 26.9667 144.016 25.66V24.26C144.016 22.9533 144.413 21.88 145.206 21.04C146.046 20.2 147.4 19.78 149.266 19.78C151.086 19.78 152.416 20.2 153.256 21.04C154.096 21.88 154.516 22.9533 154.516 24.26V25.66C154.516 26.9667 154.096 28.04 153.256 28.88C152.416 29.72 151.086 30.14 149.266 30.14ZM144.786 35.46H153.746V72H144.786V35.46ZM164.132 72V35.46H173.092V41.55H173.442C174.142 39.6367 175.262 38.0033 176.802 36.65C178.342 35.2967 180.489 34.62 183.242 34.62C185.762 34.62 187.932 35.2267 189.752 36.44C191.572 37.6533 192.925 39.4967 193.812 41.97H193.952C194.605 39.9167 195.889 38.19 197.802 36.79C199.762 35.3433 202.212 34.62 205.152 34.62C208.745 34.62 211.499 35.8567 213.412 38.33C215.372 40.8033 216.352 44.3267 216.352 48.9V72H207.392V49.81C207.392 44.5833 205.432 41.97 201.512 41.97C200.625 41.97 199.762 42.11 198.922 42.39C198.129 42.6233 197.405 42.9967 196.752 43.51C196.145 43.9767 195.655 44.5833 195.282 45.33C194.909 46.03 194.722 46.87 194.722 47.85V72H185.762V49.81C185.762 44.5833 183.802 41.97 179.882 41.97C179.042 41.97 178.202 42.11 177.362 42.39C176.569 42.6233 175.845 42.9967 175.192 43.51C174.585 43.9767 174.072 44.5833 173.652 45.33C173.279 46.03 173.092 46.87 173.092 47.85V72H164.132ZM226.271 35.46H235.231V41.48H235.511C236.164 39.38 237.401 37.7233 239.221 36.51C241.041 35.25 243.164 34.62 245.591 34.62C250.257 34.62 253.804 36.2767 256.231 39.59C258.704 42.8567 259.941 47.5467 259.941 53.66C259.941 59.82 258.704 64.5567 256.231 67.87C253.804 71.1833 250.257 72.84 245.591 72.84C243.164 72.84 241.041 72.21 239.221 70.95C237.447 69.69 236.211 68.01 235.511 65.91H235.231V86H226.271V35.46ZM242.721 65.42C245.054 65.42 246.944 64.65 248.391 63.11C249.837 61.57 250.561 59.4933 250.561 56.88V50.58C250.561 47.9667 249.837 45.89 248.391 44.35C246.944 42.7633 245.054 41.97 242.721 41.97C240.574 41.97 238.777 42.5067 237.331 43.58C235.931 44.6533 235.231 46.0767 235.231 47.85V59.47C235.231 61.3833 235.931 62.8533 237.331 63.88C238.777 64.9067 240.574 65.42 242.721 65.42ZM277.203 72C274.123 72 271.86 71.23 270.413 69.69C268.967 68.15 268.243 65.98 268.243 63.18V20.2H277.203V64.86H282.033V72H277.203ZM293.3 30.14C291.433 30.14 290.08 29.72 289.24 28.88C288.446 28.04 288.05 26.9667 288.05 25.66V24.26C288.05 22.9533 288.446 21.88 289.24 21.04C290.08 20.2 291.433 19.78 293.3 19.78C295.12 19.78 296.45 20.2 297.29 21.04C298.13 21.88 298.55 22.9533 298.55 24.26V25.66C298.55 26.9667 298.13 28.04 297.29 28.88C296.45 29.72 295.12 30.14 293.3 30.14ZM288.82 35.46H297.78V72H288.82V35.46ZM309.985 42.53H304.595V35.46H309.985V30.21C309.985 26.99 310.825 24.5167 312.505 22.79C314.232 21.0633 316.752 20.2 320.065 20.2H326.435V27.34H318.945V35.46H341.485V72H332.525V42.53H318.945V72H309.985V42.53ZM337.005 30.14C335.139 30.14 333.785 29.72 332.945 28.88C332.152 28.04 331.755 26.9667 331.755 25.66V24.26C331.755 22.9533 332.152 21.88 332.945 21.04C333.785 20.2 335.139 19.78 337.005 19.78C338.825 19.78 340.155 20.2 340.995 21.04C341.835 21.88 342.255 22.9533 342.255 24.26V25.66C342.255 26.9667 341.835 28.04 340.995 28.88C340.155 29.72 338.825 30.14 337.005 30.14ZM374.527 65.91H374.177C373.524 68.01 372.287 69.69 370.467 70.95C368.647 72.21 366.524 72.84 364.097 72.84C359.477 72.84 355.93 71.1833 353.457 67.87C351.03 64.5567 349.817 59.82 349.817 53.66C349.817 47.5467 351.03 42.8567 353.457 39.59C355.93 36.2767 359.477 34.62 364.097 34.62C366.524 34.62 368.647 35.25 370.467 36.51C372.287 37.7233 373.524 39.38 374.177 41.48H374.527V35.46H383.487V86H374.527V65.91ZM366.967 65.42C369.114 65.42 370.91 64.9067 372.357 63.88C373.804 62.8533 374.527 61.3833 374.527 59.47V47.85C374.527 46.0767 373.804 44.6533 372.357 43.58C370.91 42.5067 369.114 41.97 366.967 41.97C364.634 41.97 362.744 42.7633 361.297 44.35C359.897 45.89 359.197 47.9667 359.197 50.58V56.88C359.197 59.4933 359.897 61.57 361.297 63.11C362.744 64.65 364.634 65.42 366.967 65.42ZM415.66 65.91H415.31C414.983 66.8433 414.54 67.73 413.98 68.57C413.466 69.3633 412.79 70.0867 411.95 70.74C411.156 71.3933 410.176 71.9067 409.01 72.28C407.89 72.6533 406.583 72.84 405.09 72.84C401.31 72.84 398.416 71.6033 396.41 69.13C394.403 66.6567 393.4 63.1333 393.4 58.56V35.46H402.36V57.65C402.36 60.17 402.85 62.1067 403.83 63.46C404.81 64.7667 406.373 65.42 408.52 65.42C409.406 65.42 410.27 65.3033 411.11 65.07C411.996 64.8367 412.766 64.4867 413.42 64.02C414.073 63.5067 414.61 62.9 415.03 62.2C415.45 61.4533 415.66 60.59 415.66 59.61V35.46H424.62V72H415.66V65.91ZM449.742 72.84C447.035 72.84 444.609 72.3967 442.462 71.51C440.362 70.5767 438.565 69.2933 437.072 67.66C435.625 65.98 434.505 63.9733 433.712 61.64C432.919 59.26 432.522 56.6 432.522 53.66C432.522 50.7667 432.895 48.1533 433.642 45.82C434.435 43.4867 435.555 41.5033 437.002 39.87C438.449 38.19 440.222 36.9067 442.322 36.02C444.422 35.0867 446.802 34.62 449.462 34.62C452.309 34.62 454.782 35.11 456.882 36.09C458.982 37.07 460.709 38.4 462.062 40.08C463.415 41.76 464.419 43.72 465.072 45.96C465.772 48.1533 466.122 50.51 466.122 53.03V55.97H441.832V56.88C441.832 59.54 442.579 61.6867 444.072 63.32C445.565 64.9067 447.782 65.7 450.722 65.7C452.962 65.7 454.782 65.2333 456.182 64.3C457.629 63.3667 458.912 62.1767 460.032 60.73L464.862 66.12C463.369 68.22 461.315 69.8767 458.702 71.09C456.135 72.2567 453.149 72.84 449.742 72.84ZM449.602 41.34C447.222 41.34 445.332 42.1333 443.932 43.72C442.532 45.3067 441.832 47.36 441.832 49.88V50.44H456.812V49.81C456.812 47.29 456.182 45.26 454.922 43.72C453.709 42.1333 451.935 41.34 449.602 41.34ZM502.518 72.84C499.018 72.84 496.078 72.2567 493.698 71.09C491.318 69.8767 489.218 68.22 487.398 66.12L492.858 60.8C494.211 62.34 495.681 63.5533 497.268 64.44C498.901 65.3267 500.768 65.77 502.868 65.77C505.015 65.77 506.555 65.3967 507.488 64.65C508.468 63.9033 508.958 62.8767 508.958 61.57C508.958 60.4967 508.608 59.6567 507.908 59.05C507.255 58.3967 506.111 57.9533 504.478 57.72L500.838 57.23C496.871 56.7167 493.838 55.5967 491.738 53.87C489.685 52.0967 488.658 49.53 488.658 46.17C488.658 44.3967 488.985 42.81 489.638 41.41C490.291 39.9633 491.225 38.75 492.438 37.77C493.651 36.7433 495.098 35.9733 496.778 35.46C498.505 34.9 500.418 34.62 502.518 34.62C504.291 34.62 505.855 34.76 507.208 35.04C508.608 35.2733 509.868 35.6467 510.988 36.16C512.108 36.6267 513.135 37.2333 514.068 37.98C515.001 38.68 515.911 39.4733 516.798 40.36L511.548 45.61C510.475 44.49 509.191 43.5567 507.698 42.81C506.205 42.0633 504.571 41.69 502.798 41.69C500.838 41.69 499.415 42.04 498.528 42.74C497.688 43.44 497.268 44.35 497.268 45.47C497.268 46.6833 497.618 47.6167 498.318 48.27C499.065 48.8767 500.301 49.32 502.028 49.6L505.738 50.09C513.625 51.21 517.568 54.8033 517.568 60.87C517.568 62.6433 517.195 64.2767 516.448 65.77C515.748 67.2167 514.745 68.4767 513.438 69.55C512.131 70.5767 510.545 71.3933 508.678 72C506.858 72.56 504.805 72.84 502.518 72.84ZM547.32 65.91H546.97C546.643 66.8433 546.2 67.73 545.64 68.57C545.126 69.3633 544.45 70.0867 543.61 70.74C542.816 71.3933 541.836 71.9067 540.67 72.28C539.55 72.6533 538.243 72.84 536.75 72.84C532.97 72.84 530.076 71.6033 528.07 69.13C526.063 66.6567 525.06 63.1333 525.06 58.56V35.46H534.02V57.65C534.02 60.17 534.51 62.1067 535.49 63.46C536.47 64.7667 538.033 65.42 540.18 65.42C541.066 65.42 541.93 65.3033 542.77 65.07C543.656 64.8367 544.426 64.4867 545.08 64.02C545.733 63.5067 546.27 62.9 546.69 62.2C547.11 61.4533 547.32 60.59 547.32 59.61V35.46H556.28V72H547.32V65.91ZM593.512 72C591.552 72 589.989 71.44 588.822 70.32C587.702 69.1533 587.002 67.6133 586.722 65.7H586.302C585.695 68.08 584.459 69.8767 582.592 71.09C580.725 72.2567 578.415 72.84 575.662 72.84C571.929 72.84 569.059 71.86 567.052 69.9C565.045 67.94 564.042 65.3267 564.042 62.06C564.042 58.28 565.395 55.48 568.102 53.66C570.809 51.7933 574.659 50.86 579.652 50.86H585.882V48.2C585.882 46.1467 585.345 44.56 584.272 43.44C583.199 42.32 581.472 41.76 579.092 41.76C576.992 41.76 575.289 42.2267 573.982 43.16C572.722 44.0467 571.649 45.12 570.762 46.38L565.442 41.62C566.795 39.52 568.592 37.84 570.832 36.58C573.072 35.2733 576.035 34.62 579.722 34.62C584.669 34.62 588.425 35.74 590.992 37.98C593.559 40.22 594.842 43.44 594.842 47.64V64.86H598.482V72H593.512ZM578.672 66.33C580.679 66.33 582.382 65.8867 583.782 65C585.182 64.1133 585.882 62.8067 585.882 61.08V56.25H580.142C575.475 56.25 573.142 57.7433 573.142 60.73V61.92C573.142 63.4133 573.609 64.5333 574.542 65.28C575.522 65.98 576.899 66.33 578.672 66.33ZM622.277 72V35.46H631.237V43.02H631.587C631.82 42.04 632.17 41.1067 632.637 40.22C633.15 39.2867 633.803 38.47 634.597 37.77C635.39 37.07 636.323 36.51 637.397 36.09C638.517 35.67 639.8 35.46 641.247 35.46H643.207V43.93H640.407C637.373 43.93 635.087 44.3733 633.547 45.26C632.007 46.1467 631.237 47.5933 631.237 49.6V72H622.277ZM663.905 72.84C661.292 72.84 658.935 72.3967 656.835 71.51C654.782 70.6233 653.009 69.34 651.515 67.66C650.069 65.98 648.949 63.9733 648.155 61.64C647.362 59.26 646.965 56.6 646.965 53.66C646.965 50.72 647.362 48.0833 648.155 45.75C648.949 43.4167 650.069 41.4333 651.515 39.8C653.009 38.12 654.782 36.8367 656.835 35.95C658.935 35.0633 661.292 34.62 663.905 34.62C666.519 34.62 668.875 35.0633 670.975 35.95C673.075 36.8367 674.849 38.12 676.295 39.8C677.789 41.4333 678.932 43.4167 679.725 45.75C680.519 48.0833 680.915 50.72 680.915 53.66C680.915 56.6 680.519 59.26 679.725 61.64C678.932 63.9733 677.789 65.98 676.295 67.66C674.849 69.34 673.075 70.6233 670.975 71.51C668.875 72.3967 666.519 72.84 663.905 72.84ZM663.905 65.63C666.285 65.63 668.152 64.9067 669.505 63.46C670.859 62.0133 671.535 59.89 671.535 57.09V50.3C671.535 47.5467 670.859 45.4467 669.505 44C668.152 42.5533 666.285 41.83 663.905 41.83C661.572 41.83 659.729 42.5533 658.375 44C657.022 45.4467 656.345 47.5467 656.345 50.3V57.09C656.345 59.89 657.022 62.0133 658.375 63.46C659.729 64.9067 661.572 65.63 663.905 65.63ZM699.995 72C696.915 72 694.559 71.2067 692.925 69.62C691.339 67.9867 690.545 65.6767 690.545 62.69V42.6H685.155V35.46H687.955C689.309 35.46 690.219 35.1567 690.685 34.55C691.199 33.8967 691.455 32.94 691.455 31.68V25.45H699.505V35.46H706.995V42.6H699.505V64.86H706.435V72H699.995ZM719.247 30.14C717.38 30.14 716.027 29.72 715.187 28.88C714.394 28.04 713.997 26.9667 713.997 25.66V24.26C713.997 22.9533 714.394 21.88 715.187 21.04C716.027 20.2 717.38 19.78 719.247 19.78C721.067 19.78 722.397 20.2 723.237 21.04C724.077 21.88 724.497 22.9533 724.497 24.26V25.66C724.497 26.9667 724.077 28.04 723.237 28.88C722.397 29.72 721.067 30.14 719.247 30.14ZM714.767 35.46H723.727V72H714.767V35.46ZM734.113 72V35.46H743.073V41.55H743.423C744.169 39.59 745.336 37.9567 746.923 36.65C748.556 35.2967 750.796 34.62 753.643 34.62C757.423 34.62 760.316 35.8567 762.323 38.33C764.329 40.8033 765.333 44.3267 765.333 48.9V72H756.373V49.81C756.373 47.1967 755.906 45.2367 754.973 43.93C754.039 42.6233 752.499 41.97 750.353 41.97C749.419 41.97 748.509 42.11 747.623 42.39C746.783 42.6233 746.013 42.9967 745.313 43.51C744.659 43.9767 744.123 44.5833 743.703 45.33C743.283 46.03 743.073 46.87 743.073 47.85V72H734.113ZM802.145 72C800.185 72 798.622 71.44 797.455 70.32C796.335 69.1533 795.635 67.6133 795.355 65.7H794.935C794.328 68.08 793.092 69.8767 791.225 71.09C789.358 72.2567 787.048 72.84 784.295 72.84C780.562 72.84 777.692 71.86 775.685 69.9C773.678 67.94 772.675 65.3267 772.675 62.06C772.675 58.28 774.028 55.48 776.735 53.66C779.442 51.7933 783.292 50.86 788.285 50.86H794.515V48.2C794.515 46.1467 793.978 44.56 792.905 43.44C791.832 42.32 790.105 41.76 787.725 41.76C785.625 41.76 783.922 42.2267 782.615 43.16C781.355 44.0467 780.282 45.12 779.395 46.38L774.075 41.62C775.428 39.52 777.225 37.84 779.465 36.58C781.705 35.2733 784.668 34.62 788.355 34.62C793.302 34.62 797.058 35.74 799.625 37.98C802.192 40.22 803.475 43.44 803.475 47.64V64.86H807.115V72H802.145ZM787.305 66.33C789.312 66.33 791.015 65.8867 792.415 65C793.815 64.1133 794.515 62.8067 794.515 61.08V56.25H788.775C784.108 56.25 781.775 57.7433 781.775 60.73V61.92C781.775 63.4133 782.242 64.5333 783.175 65.28C784.155 65.98 785.532 66.33 787.305 66.33Z" fill="white" fill-opacity="0.88"/>
<path d="M16.1522 121.948H16.0072L14.2962 125.341L9.4532 134.157L4.6102 125.341L2.8992 121.948H2.7542V139H0.376199V118.758H3.6242L9.4242 129.662H9.5692L15.3982 118.758H18.5302V139H16.1522V121.948ZM34.5534 139C33.6834 139 33.055 138.768 32.6684 138.304C32.301 137.84 32.069 137.26 31.9724 136.564H31.8274C31.4987 137.492 30.9574 138.188 30.2034 138.652C29.4494 139.116 28.5504 139.348 27.5064 139.348C25.921 139.348 24.6837 138.942 23.7944 138.13C22.9244 137.318 22.4894 136.216 22.4894 134.824C22.4894 133.413 23.0017 132.33 24.0264 131.576C25.0704 130.822 26.6847 130.445 28.8694 130.445H31.8274V128.966C31.8274 127.903 31.5374 127.091 30.9574 126.53C30.3774 125.969 29.488 125.689 28.2894 125.689C27.3807 125.689 26.617 125.892 25.9984 126.298C25.399 126.704 24.8964 127.245 24.4904 127.922L23.0984 126.617C23.5044 125.805 24.152 125.119 25.0414 124.558C25.9307 123.978 27.052 123.688 28.4054 123.688C30.2227 123.688 31.634 124.133 32.6394 125.022C33.6447 125.911 34.1474 127.149 34.1474 128.734V136.97H35.8584V139H34.5534ZM27.8834 137.376C28.4634 137.376 28.995 137.308 29.4784 137.173C29.9617 137.038 30.3774 136.844 30.7254 136.593C31.0734 136.342 31.344 136.052 31.5374 135.723C31.7307 135.394 31.8274 135.037 31.8274 134.65V132.185H28.7534C27.4194 132.185 26.443 132.378 25.8244 132.765C25.225 133.152 24.9254 133.712 24.9254 134.447V135.056C24.9254 135.791 25.1864 136.361 25.7084 136.767C26.2497 137.173 26.9747 137.376 27.8834 137.376ZM39.1696 139V124.036H41.4896V126.472H41.6056C41.9729 125.621 42.4853 124.945 43.1426 124.442C43.8193 123.939 44.7183 123.688 45.8396 123.688C47.3863 123.688 48.6043 124.191 49.4936 125.196C50.4023 126.182 50.8566 127.584 50.8566 129.401V139H48.5366V129.807C48.5366 127.12 47.4056 125.776 45.1436 125.776C44.6796 125.776 44.2253 125.834 43.7806 125.95C43.3553 126.066 42.9686 126.24 42.6206 126.472C42.2726 126.704 41.9923 127.004 41.7796 127.371C41.5863 127.719 41.4896 128.135 41.4896 128.618V139H39.1696ZM58.958 139C58.146 139 57.5273 138.778 57.102 138.333C56.696 137.869 56.493 137.27 56.493 136.535V126.066H54.028V124.036H55.42C55.9227 124.036 56.261 123.939 56.435 123.746C56.6283 123.533 56.725 123.176 56.725 122.673V119.889H58.813V124.036H62.09V126.066H58.813V136.97H61.858V139H58.958ZM71.3317 139.348C70.3071 139.348 69.3791 139.164 68.5477 138.797C67.7357 138.43 67.0301 137.908 66.4307 137.231C65.8507 136.535 65.3964 135.713 65.0677 134.766C64.7584 133.799 64.6037 132.717 64.6037 131.518C64.6037 130.339 64.7584 129.266 65.0677 128.299C65.3964 127.332 65.8507 126.511 66.4307 125.834C67.0301 125.138 67.7357 124.606 68.5477 124.239C69.3791 123.872 70.3071 123.688 71.3317 123.688C72.3371 123.688 73.2361 123.872 74.0287 124.239C74.8214 124.606 75.4981 125.119 76.0587 125.776C76.6194 126.414 77.0447 127.178 77.3347 128.067C77.6441 128.956 77.7987 129.933 77.7987 130.996V132.098H67.0397V132.794C67.0397 133.432 67.1364 134.031 67.3297 134.592C67.5424 135.133 67.8324 135.607 68.1997 136.013C68.5864 136.419 69.0504 136.738 69.5917 136.97C70.1524 137.202 70.7807 137.318 71.4767 137.318C72.4241 137.318 73.2457 137.096 73.9417 136.651C74.6571 136.206 75.2081 135.568 75.5947 134.737L77.2477 135.926C76.7644 136.951 76.0104 137.782 74.9857 138.42C73.9611 139.039 72.7431 139.348 71.3317 139.348ZM71.3317 125.631C70.6937 125.631 70.1137 125.747 69.5917 125.979C69.0697 126.192 68.6154 126.501 68.2287 126.907C67.8614 127.313 67.5714 127.796 67.3587 128.357C67.1461 128.898 67.0397 129.498 67.0397 130.155V130.358H75.3047V130.039C75.3047 128.705 74.9374 127.642 74.2027 126.849C73.4874 126.037 72.5304 125.631 71.3317 125.631ZM81.6217 139V124.036H83.9417V126.472H84.0577C84.4251 125.621 84.9374 124.945 85.5947 124.442C86.2714 123.939 87.1704 123.688 88.2917 123.688C89.8384 123.688 91.0564 124.191 91.9457 125.196C92.8544 126.182 93.3087 127.584 93.3087 129.401V139H90.9887V129.807C90.9887 127.12 89.8577 125.776 87.5957 125.776C87.1317 125.776 86.6774 125.834 86.2327 125.95C85.8074 126.066 85.4207 126.24 85.0727 126.472C84.7247 126.704 84.4444 127.004 84.2317 127.371C84.0384 127.719 83.9417 128.135 83.9417 128.618V139H81.6217ZM98.1042 117.54H100.424V126.472H100.54C100.907 125.621 101.42 124.945 102.077 124.442C102.754 123.939 103.653 123.688 104.774 123.688C106.321 123.688 107.539 124.191 108.428 125.196C109.337 126.182 109.791 127.584 109.791 129.401V139H107.471V129.807C107.471 127.12 106.34 125.776 104.078 125.776C103.614 125.776 103.16 125.834 102.715 125.95C102.29 126.066 101.903 126.24 101.555 126.472C101.207 126.704 100.927 127.004 100.714 127.371C100.521 127.719 100.424 128.135 100.424 128.618V139H98.1042V117.54ZM125.462 139C124.592 139 123.963 138.768 123.577 138.304C123.209 137.84 122.977 137.26 122.881 136.564H122.736C122.407 137.492 121.866 138.188 121.112 138.652C120.358 139.116 119.459 139.348 118.415 139.348C116.829 139.348 115.592 138.942 114.703 138.13C113.833 137.318 113.398 136.216 113.398 134.824C113.398 133.413 113.91 132.33 114.935 131.576C115.979 130.822 117.593 130.445 119.778 130.445H122.736V128.966C122.736 127.903 122.446 127.091 121.866 126.53C121.286 125.969 120.396 125.689 119.198 125.689C118.289 125.689 117.525 125.892 116.907 126.298C116.307 126.704 115.805 127.245 115.399 127.922L114.007 126.617C114.413 125.805 115.06 125.119 115.95 124.558C116.839 123.978 117.96 123.688 119.314 123.688C121.131 123.688 122.542 124.133 123.548 125.022C124.553 125.911 125.056 127.149 125.056 128.734V136.97H126.767V139H125.462ZM118.792 137.376C119.372 137.376 119.903 137.308 120.387 137.173C120.87 137.038 121.286 136.844 121.634 136.593C121.982 136.342 122.252 136.052 122.446 135.723C122.639 135.394 122.736 135.037 122.736 134.65V132.185H119.662C118.328 132.185 117.351 132.378 116.733 132.765C116.133 133.152 115.834 133.712 115.834 134.447V135.056C115.834 135.791 116.095 136.361 116.617 136.767C117.158 137.173 117.883 137.376 118.792 137.376ZM142.499 139.348C141.455 139.348 140.518 139.164 139.686 138.797C138.855 138.43 138.149 137.908 137.569 137.231C137.009 136.554 136.574 135.733 136.264 134.766C135.974 133.799 135.829 132.717 135.829 131.518C135.829 130.319 135.974 129.237 136.264 128.27C136.574 127.303 137.009 126.482 137.569 125.805C138.149 125.128 138.855 124.606 139.686 124.239C140.518 123.872 141.455 123.688 142.499 123.688C143.988 123.688 145.177 124.017 146.066 124.674C146.975 125.312 147.652 126.153 148.096 127.197L146.153 128.183C145.883 127.41 145.438 126.81 144.819 126.385C144.201 125.96 143.427 125.747 142.499 125.747C141.803 125.747 141.194 125.863 140.672 126.095C140.15 126.308 139.715 126.617 139.367 127.023C139.019 127.41 138.758 127.883 138.584 128.444C138.41 128.985 138.323 129.585 138.323 130.242V132.794C138.323 134.109 138.671 135.191 139.367 136.042C140.083 136.873 141.127 137.289 142.499 137.289C144.375 137.289 145.728 136.419 146.559 134.679L148.241 135.81C147.758 136.893 147.033 137.753 146.066 138.391C145.119 139.029 143.93 139.348 142.499 139.348ZM157.001 139.348C155.996 139.348 155.078 139.164 154.246 138.797C153.415 138.43 152.7 137.908 152.1 137.231C151.52 136.535 151.066 135.713 150.737 134.766C150.409 133.799 150.244 132.717 150.244 131.518C150.244 130.339 150.409 129.266 150.737 128.299C151.066 127.332 151.52 126.511 152.1 125.834C152.7 125.138 153.415 124.606 154.246 124.239C155.078 123.872 155.996 123.688 157.001 123.688C158.007 123.688 158.915 123.872 159.727 124.239C160.559 124.606 161.274 125.138 161.873 125.834C162.473 126.511 162.937 127.332 163.265 128.299C163.594 129.266 163.758 130.339 163.758 131.518C163.758 132.717 163.594 133.799 163.265 134.766C162.937 135.713 162.473 136.535 161.873 137.231C161.274 137.908 160.559 138.43 159.727 138.797C158.915 139.164 158.007 139.348 157.001 139.348ZM157.001 137.289C158.258 137.289 159.283 136.902 160.075 136.129C160.868 135.356 161.264 134.176 161.264 132.591V130.445C161.264 128.86 160.868 127.68 160.075 126.907C159.283 126.134 158.258 125.747 157.001 125.747C155.745 125.747 154.72 126.134 153.927 126.907C153.135 127.68 152.738 128.86 152.738 130.445V132.591C152.738 134.176 153.135 135.356 153.927 136.129C154.72 136.902 155.745 137.289 157.001 137.289ZM167.574 139V124.036H169.894V126.472H170.01C170.377 125.621 170.89 124.945 171.547 124.442C172.224 123.939 173.123 123.688 174.244 123.688C175.791 123.688 177.009 124.191 177.898 125.196C178.807 126.182 179.261 127.584 179.261 129.401V139H176.941V129.807C176.941 127.12 175.81 125.776 173.548 125.776C173.084 125.776 172.63 125.834 172.185 125.95C171.76 126.066 171.373 126.24 171.025 126.472C170.677 126.704 170.397 127.004 170.184 127.371C169.991 127.719 169.894 128.135 169.894 128.618V139H167.574ZM187.362 139C186.55 139 185.932 138.778 185.506 138.333C185.1 137.869 184.897 137.27 184.897 136.535V126.066H182.432V124.036H183.824C184.327 124.036 184.665 123.939 184.839 123.746C185.033 123.533 185.129 123.176 185.129 122.673V119.889H187.217V124.036H190.494V126.066H187.217V136.97H190.262V139H187.362ZM194.223 139V124.036H196.543V126.791H196.688C196.959 126.076 197.442 125.438 198.138 124.877C198.834 124.316 199.791 124.036 201.009 124.036H201.908V126.356H200.545C199.289 126.356 198.303 126.598 197.587 127.081C196.891 127.545 196.543 128.135 196.543 128.85V139H194.223ZM210.385 139.348C209.38 139.348 208.461 139.164 207.63 138.797C206.799 138.43 206.083 137.908 205.484 137.231C204.904 136.535 204.45 135.713 204.121 134.766C203.792 133.799 203.628 132.717 203.628 131.518C203.628 130.339 203.792 129.266 204.121 128.299C204.45 127.332 204.904 126.511 205.484 125.834C206.083 125.138 206.799 124.606 207.63 124.239C208.461 123.872 209.38 123.688 210.385 123.688C211.39 123.688 212.299 123.872 213.111 124.239C213.942 124.606 214.658 125.138 215.257 125.834C215.856 126.511 216.32 127.332 216.649 128.299C216.978 129.266 217.142 130.339 217.142 131.518C217.142 132.717 216.978 133.799 216.649 134.766C216.32 135.713 215.856 136.535 215.257 137.231C214.658 137.908 213.942 138.43 213.111 138.797C212.299 139.164 211.39 139.348 210.385 139.348ZM210.385 137.289C211.642 137.289 212.666 136.902 213.459 136.129C214.252 135.356 214.648 134.176 214.648 132.591V130.445C214.648 128.86 214.252 127.68 213.459 126.907C212.666 126.134 211.642 125.747 210.385 125.747C209.128 125.747 208.104 126.134 207.311 126.907C206.518 127.68 206.122 128.86 206.122 130.445V132.591C206.122 134.176 206.518 135.356 207.311 136.129C208.104 136.902 209.128 137.289 210.385 137.289ZM223.423 139C222.611 139 221.992 138.778 221.567 138.333C221.161 137.869 220.958 137.289 220.958 136.593V117.54H223.278V136.97H225.482V139H223.423ZM234.485 139.348C233.46 139.348 232.532 139.164 231.701 138.797C230.889 138.43 230.183 137.908 229.584 137.231C229.004 136.535 228.55 135.713 228.221 134.766C227.912 133.799 227.757 132.717 227.757 131.518C227.757 130.339 227.912 129.266 228.221 128.299C228.55 127.332 229.004 126.511 229.584 125.834C230.183 125.138 230.889 124.606 231.701 124.239C232.532 123.872 233.46 123.688 234.485 123.688C235.49 123.688 236.389 123.872 237.182 124.239C237.975 124.606 238.651 125.119 239.212 125.776C239.773 126.414 240.198 127.178 240.488 128.067C240.797 128.956 240.952 129.933 240.952 130.996V132.098H230.193V132.794C230.193 133.432 230.29 134.031 230.483 134.592C230.696 135.133 230.986 135.607 231.353 136.013C231.74 136.419 232.204 136.738 232.745 136.97C233.306 137.202 233.934 137.318 234.63 137.318C235.577 137.318 236.399 137.096 237.095 136.651C237.81 136.206 238.361 135.568 238.748 134.737L240.401 135.926C239.918 136.951 239.164 137.782 238.139 138.42C237.114 139.039 235.896 139.348 234.485 139.348ZM234.485 125.631C233.847 125.631 233.267 125.747 232.745 125.979C232.223 126.192 231.769 126.501 231.382 126.907C231.015 127.313 230.725 127.796 230.512 128.357C230.299 128.898 230.193 129.498 230.193 130.155V130.358H238.458V130.039C238.458 128.705 238.091 127.642 237.356 126.849C236.641 126.037 235.684 125.631 234.485 125.631ZM261.199 136.564H261.083C260.174 138.42 258.714 139.348 256.704 139.348C255.776 139.348 254.935 139.164 254.181 138.797C253.427 138.43 252.779 137.908 252.238 137.231C251.716 136.554 251.31 135.733 251.02 134.766C250.749 133.799 250.614 132.717 250.614 131.518C250.614 130.319 250.749 129.237 251.02 128.27C251.31 127.303 251.716 126.482 252.238 125.805C252.779 125.128 253.427 124.606 254.181 124.239C254.935 123.872 255.776 123.688 256.704 123.688C257.748 123.688 258.637 123.92 259.372 124.384C260.126 124.829 260.696 125.525 261.083 126.472H261.199V117.54H263.519V139H261.199V136.564ZM257.342 137.26C257.864 137.26 258.357 137.192 258.821 137.057C259.304 136.922 259.72 136.728 260.068 136.477C260.416 136.206 260.686 135.887 260.88 135.52C261.092 135.133 261.199 134.698 261.199 134.215V128.647C261.199 128.241 261.092 127.864 260.88 127.516C260.686 127.149 260.416 126.839 260.068 126.588C259.72 126.337 259.304 126.143 258.821 126.008C258.357 125.853 257.864 125.776 257.342 125.776C256.027 125.776 254.993 126.192 254.239 127.023C253.485 127.835 253.108 128.908 253.108 130.242V132.794C253.108 134.128 253.485 135.211 254.239 136.042C254.993 136.854 256.027 137.26 257.342 137.26ZM279.326 139C278.456 139 277.828 138.768 277.441 138.304C277.074 137.84 276.842 137.26 276.745 136.564H276.6C276.271 137.492 275.73 138.188 274.976 138.652C274.222 139.116 273.323 139.348 272.279 139.348C270.694 139.348 269.456 138.942 268.567 138.13C267.697 137.318 267.262 136.216 267.262 134.824C267.262 133.413 267.774 132.33 268.799 131.576C269.843 130.822 271.457 130.445 273.642 130.445H276.6V128.966C276.6 127.903 276.31 127.091 275.73 126.53C275.15 125.969 274.261 125.689 273.062 125.689C272.153 125.689 271.39 125.892 270.771 126.298C270.172 126.704 269.669 127.245 269.263 127.922L267.871 126.617C268.277 125.805 268.925 125.119 269.814 124.558C270.703 123.978 271.825 123.688 273.178 123.688C274.995 123.688 276.407 124.133 277.412 125.022C278.417 125.911 278.92 127.149 278.92 128.734V136.97H280.631V139H279.326ZM272.656 137.376C273.236 137.376 273.768 137.308 274.251 137.173C274.734 137.038 275.15 136.844 275.498 136.593C275.846 136.342 276.117 136.052 276.31 135.723C276.503 135.394 276.6 135.037 276.6 134.65V132.185H273.526C272.192 132.185 271.216 132.378 270.597 132.765C269.998 133.152 269.698 133.712 269.698 134.447V135.056C269.698 135.791 269.959 136.361 270.481 136.767C271.022 137.173 271.747 137.376 272.656 137.376ZM290.796 139V124.036H293.116V126.472H293.232C293.406 126.085 293.599 125.728 293.812 125.399C294.044 125.051 294.314 124.751 294.624 124.5C294.952 124.249 295.329 124.055 295.755 123.92C296.18 123.765 296.683 123.688 297.263 123.688C298.249 123.688 299.157 123.93 299.989 124.413C300.82 124.877 301.439 125.65 301.845 126.733H301.903C302.173 125.921 302.676 125.215 303.411 124.616C304.165 123.997 305.18 123.688 306.456 123.688C307.983 123.688 309.172 124.191 310.023 125.196C310.893 126.182 311.328 127.584 311.328 129.401V139H309.008V129.807C309.008 128.473 308.747 127.468 308.225 126.791C307.703 126.114 306.871 125.776 305.731 125.776C305.267 125.776 304.822 125.834 304.397 125.95C303.991 126.066 303.623 126.24 303.295 126.472C302.966 126.704 302.705 127.004 302.512 127.371C302.318 127.719 302.222 128.135 302.222 128.618V139H299.902V129.807C299.902 128.473 299.641 127.468 299.119 126.791C298.597 126.114 297.785 125.776 296.683 125.776C296.219 125.776 295.774 125.834 295.349 125.95C294.923 126.066 294.546 126.24 294.218 126.472C293.889 126.704 293.618 127.004 293.406 127.371C293.212 127.719 293.116 128.135 293.116 128.618V139H290.796ZM326.989 139C326.119 139 325.491 138.768 325.104 138.304C324.737 137.84 324.505 137.26 324.408 136.564H324.263C323.934 137.492 323.393 138.188 322.639 138.652C321.885 139.116 320.986 139.348 319.942 139.348C318.357 139.348 317.119 138.942 316.23 138.13C315.36 137.318 314.925 136.216 314.925 134.824C314.925 133.413 315.437 132.33 316.462 131.576C317.506 130.822 319.12 130.445 321.305 130.445H324.263V128.966C324.263 127.903 323.973 127.091 323.393 126.53C322.813 125.969 321.924 125.689 320.725 125.689C319.816 125.689 319.053 125.892 318.434 126.298C317.835 126.704 317.332 127.245 316.926 127.922L315.534 126.617C315.94 125.805 316.588 125.119 317.477 124.558C318.366 123.978 319.488 123.688 320.841 123.688C322.658 123.688 324.07 124.133 325.075 125.022C326.08 125.911 326.583 127.149 326.583 128.734V136.97H328.294V139H326.989ZM320.319 137.376C320.899 137.376 321.431 137.308 321.914 137.173C322.397 137.038 322.813 136.844 323.161 136.593C323.509 136.342 323.78 136.052 323.973 135.723C324.166 135.394 324.263 135.037 324.263 134.65V132.185H321.189C319.855 132.185 318.879 132.378 318.26 132.765C317.661 133.152 317.361 133.712 317.361 134.447V135.056C317.361 135.791 317.622 136.361 318.144 136.767C318.685 137.173 319.41 137.376 320.319 137.376ZM331.605 139V124.036H333.925V126.472H334.041C334.408 125.621 334.921 124.945 335.578 124.442C336.255 123.939 337.154 123.688 338.275 123.688C339.822 123.688 341.04 124.191 341.929 125.196C342.838 126.182 343.292 127.584 343.292 129.401V139H340.972V129.807C340.972 127.12 339.841 125.776 337.579 125.776C337.115 125.776 336.661 125.834 336.216 125.95C335.791 126.066 335.404 126.24 335.056 126.472C334.708 126.704 334.428 127.004 334.215 127.371C334.022 127.719 333.925 128.135 333.925 128.618V139H331.605ZM357.31 136.564H357.194C357.039 136.912 356.846 137.26 356.614 137.608C356.401 137.937 356.13 138.236 355.802 138.507C355.473 138.758 355.077 138.961 354.613 139.116C354.149 139.271 353.607 139.348 352.989 139.348C351.442 139.348 350.214 138.855 349.306 137.869C348.397 136.864 347.943 135.452 347.943 133.635V124.036H350.263V133.229C350.263 135.916 351.403 137.26 353.685 137.26C354.149 137.26 354.593 137.202 355.019 137.086C355.463 136.97 355.85 136.796 356.179 136.564C356.527 136.332 356.797 136.042 356.991 135.694C357.203 135.327 357.31 134.892 357.31 134.389V124.036H359.63V139H357.31V136.564ZM367.876 139C367.064 139 366.445 138.778 366.02 138.333C365.614 137.869 365.411 137.27 365.411 136.535V126.066H362.946V124.036H364.338C364.841 124.036 365.179 123.939 365.353 123.746C365.546 123.533 365.643 123.176 365.643 122.673V119.889H367.731V124.036H371.008V126.066H367.731V136.97H370.776V139H367.876ZM380.25 139.348C379.225 139.348 378.297 139.164 377.466 138.797C376.654 138.43 375.948 137.908 375.349 137.231C374.769 136.535 374.314 135.713 373.986 134.766C373.676 133.799 373.522 132.717 373.522 131.518C373.522 130.339 373.676 129.266 373.986 128.299C374.314 127.332 374.769 126.511 375.349 125.834C375.948 125.138 376.654 124.606 377.466 124.239C378.297 123.872 379.225 123.688 380.25 123.688C381.255 123.688 382.154 123.872 382.947 124.239C383.739 124.606 384.416 125.119 384.977 125.776C385.537 126.414 385.963 127.178 386.253 128.067C386.562 128.956 386.717 129.933 386.717 130.996V132.098H375.958V132.794C375.958 133.432 376.054 134.031 376.248 134.592C376.46 135.133 376.75 135.607 377.118 136.013C377.504 136.419 377.968 136.738 378.51 136.97C379.07 137.202 379.699 137.318 380.395 137.318C381.342 137.318 382.164 137.096 382.86 136.651C383.575 136.206 384.126 135.568 384.513 134.737L386.166 135.926C385.682 136.951 384.928 137.782 383.904 138.42C382.879 139.039 381.661 139.348 380.25 139.348ZM380.25 125.631C379.612 125.631 379.032 125.747 378.51 125.979C377.988 126.192 377.533 126.501 377.147 126.907C376.779 127.313 376.489 127.796 376.277 128.357C376.064 128.898 375.958 129.498 375.958 130.155V130.358H384.223V130.039C384.223 128.705 383.855 127.642 383.121 126.849C382.405 126.037 381.448 125.631 380.25 125.631ZM390.54 139V124.036H392.86V126.472H392.976C393.343 125.621 393.855 124.945 394.513 124.442C395.189 123.939 396.088 123.688 397.21 123.688C398.756 123.688 399.974 124.191 400.864 125.196C401.772 126.182 402.227 127.584 402.227 129.401V139H399.907V129.807C399.907 127.12 398.776 125.776 396.514 125.776C396.05 125.776 395.595 125.834 395.151 125.95C394.725 126.066 394.339 126.24 393.991 126.472C393.643 126.704 393.362 127.004 393.15 127.371C392.956 127.719 392.86 128.135 392.86 128.618V139H390.54ZM412.59 123.688C414.079 123.688 415.268 124.017 416.157 124.674C417.066 125.312 417.742 126.143 418.187 127.168L416.244 128.183C415.973 127.41 415.529 126.81 414.91 126.385C414.291 125.96 413.518 125.747 412.59 125.747C411.894 125.747 411.285 125.863 410.763 126.095C410.241 126.308 409.806 126.617 409.458 127.023C409.11 127.41 408.849 127.883 408.675 128.444C408.501 128.985 408.414 129.585 408.414 130.242V132.794C408.414 134.109 408.762 135.191 409.458 136.042C410.173 136.873 411.217 137.289 412.59 137.289C414.465 137.289 415.819 136.419 416.65 134.679L418.332 135.81C417.887 136.796 417.24 137.608 416.389 138.246C415.538 138.865 414.485 139.222 413.228 139.319L412.938 140.769L413.025 140.856C413.392 140.74 413.769 140.682 414.156 140.682C414.717 140.682 415.181 140.846 415.548 141.175C415.935 141.504 416.128 141.977 416.128 142.596C416.128 143.002 416.041 143.36 415.867 143.669C415.693 143.978 415.451 144.23 415.142 144.423C414.852 144.616 414.514 144.761 414.127 144.858C413.74 144.955 413.334 145.003 412.909 145.003C412.116 145.003 411.488 144.868 411.024 144.597C410.579 144.346 410.251 144.085 410.038 143.814L411.14 142.625C411.314 142.838 411.546 143.021 411.836 143.176C412.126 143.35 412.484 143.437 412.909 143.437C413.276 143.437 413.576 143.36 413.808 143.205C414.059 143.07 414.185 142.847 414.185 142.538C414.185 142.267 414.059 142.026 413.808 141.813C413.557 141.62 413.025 141.465 412.213 141.349L411.401 141.233L411.778 139.319C409.903 139.126 408.453 138.333 407.428 136.941C406.423 135.549 405.92 133.741 405.92 131.518C405.92 130.319 406.065 129.237 406.355 128.27C406.664 127.303 407.099 126.482 407.66 125.805C408.24 125.128 408.946 124.606 409.777 124.239C410.608 123.872 411.546 123.688 412.59 123.688ZM432.482 139C431.612 139 430.984 138.768 430.597 138.304C430.23 137.84 429.998 137.26 429.901 136.564H429.756C429.427 137.492 428.886 138.188 428.132 138.652C427.378 139.116 426.479 139.348 425.435 139.348C423.85 139.348 422.612 138.942 421.723 138.13C420.853 137.318 420.418 136.216 420.418 134.824C420.418 133.413 420.93 132.33 421.955 131.576C422.999 130.822 424.613 130.445 426.798 130.445H429.756V128.966C429.756 127.903 429.466 127.091 428.886 126.53C428.306 125.969 427.417 125.689 426.218 125.689C425.309 125.689 424.546 125.892 423.927 126.298C423.328 126.704 422.825 127.245 422.419 127.922L421.027 126.617C421.433 125.805 422.081 125.119 422.97 124.558C423.859 123.978 424.981 123.688 426.334 123.688C428.151 123.688 429.563 124.133 430.568 125.022C431.573 125.911 432.076 127.149 432.076 128.734V136.97H433.787V139H432.482ZM425.812 137.376C426.392 137.376 426.924 137.308 427.407 137.173C427.89 137.038 428.306 136.844 428.654 136.593C429.002 136.342 429.273 136.052 429.466 135.723C429.659 135.394 429.756 135.037 429.756 134.65V132.185H426.682C425.348 132.185 424.372 132.378 423.753 132.765C423.154 133.152 422.854 133.712 422.854 134.447V135.056C422.854 135.791 423.115 136.361 423.637 136.767C424.178 137.173 424.903 137.376 425.812 137.376ZM428.596 121.252C428.093 121.252 427.658 121.165 427.291 120.991C426.924 120.817 426.585 120.653 426.276 120.498C425.812 120.247 425.416 120.073 425.087 119.976C424.778 119.86 424.497 119.802 424.246 119.802C423.917 119.802 423.627 119.87 423.376 120.005C423.125 120.14 422.854 120.334 422.564 120.585L421.607 119.425C421.878 119.038 422.235 118.69 422.68 118.381C423.125 118.052 423.685 117.888 424.362 117.888C424.865 117.888 425.3 117.975 425.667 118.149C426.034 118.323 426.373 118.487 426.682 118.642C427.146 118.893 427.533 119.077 427.842 119.193C428.171 119.29 428.461 119.338 428.712 119.338C429.041 119.338 429.331 119.27 429.582 119.135C429.833 119 430.104 118.806 430.394 118.555L431.351 119.715C431.08 120.102 430.723 120.459 430.278 120.788C429.833 121.097 429.273 121.252 428.596 121.252ZM442.753 139.348C441.748 139.348 440.83 139.164 439.998 138.797C439.167 138.43 438.452 137.908 437.852 137.231C437.272 136.535 436.818 135.713 436.489 134.766C436.161 133.799 435.996 132.717 435.996 131.518C435.996 130.339 436.161 129.266 436.489 128.299C436.818 127.332 437.272 126.511 437.852 125.834C438.452 125.138 439.167 124.606 439.998 124.239C440.83 123.872 441.748 123.688 442.753 123.688C443.759 123.688 444.667 123.872 445.479 124.239C446.311 124.606 447.026 125.138 447.625 125.834C448.225 126.511 448.689 127.332 449.017 128.299C449.346 129.266 449.51 130.339 449.51 131.518C449.51 132.717 449.346 133.799 449.017 134.766C448.689 135.713 448.225 136.535 447.625 137.231C447.026 137.908 446.311 138.43 445.479 138.797C444.667 139.164 443.759 139.348 442.753 139.348ZM442.753 137.289C444.01 137.289 445.035 136.902 445.827 136.129C446.62 135.356 447.016 134.176 447.016 132.591V130.445C447.016 128.86 446.62 127.68 445.827 126.907C445.035 126.134 444.01 125.747 442.753 125.747C441.497 125.747 440.472 126.134 439.679 126.907C438.887 127.68 438.49 128.86 438.49 130.445V132.591C438.49 134.176 438.887 135.356 439.679 136.129C440.472 136.902 441.497 137.289 442.753 137.289ZM469.749 136.564H469.633C468.725 138.42 467.265 139.348 465.254 139.348C464.326 139.348 463.485 139.164 462.731 138.797C461.977 138.43 461.33 137.908 460.788 137.231C460.266 136.554 459.86 135.733 459.57 134.766C459.3 133.799 459.164 132.717 459.164 131.518C459.164 130.319 459.3 129.237 459.57 128.27C459.86 127.303 460.266 126.482 460.788 125.805C461.33 125.128 461.977 124.606 462.731 124.239C463.485 123.872 464.326 123.688 465.254 123.688C466.298 123.688 467.188 123.92 467.922 124.384C468.676 124.829 469.247 125.525 469.633 126.472H469.749V117.54H472.069V139H469.749V136.564ZM465.892 137.26C466.414 137.26 466.907 137.192 467.371 137.057C467.855 136.922 468.27 136.728 468.618 136.477C468.966 136.206 469.237 135.887 469.43 135.52C469.643 135.133 469.749 134.698 469.749 134.215V128.647C469.749 128.241 469.643 127.864 469.43 127.516C469.237 127.149 468.966 126.839 468.618 126.588C468.27 126.337 467.855 126.143 467.371 126.008C466.907 125.853 466.414 125.776 465.892 125.776C464.578 125.776 463.543 126.192 462.789 127.023C462.035 127.835 461.658 128.908 461.658 130.242V132.794C461.658 134.128 462.035 135.211 462.789 136.042C463.543 136.854 464.578 137.26 465.892 137.26ZM482.657 139.348C481.651 139.348 480.733 139.164 479.902 138.797C479.07 138.43 478.355 137.908 477.756 137.231C477.176 136.535 476.721 135.713 476.393 134.766C476.064 133.799 475.9 132.717 475.9 131.518C475.9 130.339 476.064 129.266 476.393 128.299C476.721 127.332 477.176 126.511 477.756 125.834C478.355 125.138 479.07 124.606 479.902 124.239C480.733 123.872 481.651 123.688 482.657 123.688C483.662 123.688 484.571 123.872 485.383 124.239C486.214 124.606 486.929 125.138 487.529 125.834C488.128 126.511 488.592 127.332 488.921 128.299C489.249 129.266 489.414 130.339 489.414 131.518C489.414 132.717 489.249 133.799 488.921 134.766C488.592 135.713 488.128 136.535 487.529 137.231C486.929 137.908 486.214 138.43 485.383 138.797C484.571 139.164 483.662 139.348 482.657 139.348ZM482.657 137.289C483.913 137.289 484.938 136.902 485.731 136.129C486.523 135.356 486.92 134.176 486.92 132.591V130.445C486.92 128.86 486.523 127.68 485.731 126.907C484.938 126.134 483.913 125.747 482.657 125.747C481.4 125.747 480.375 126.134 479.583 126.907C478.79 127.68 478.394 128.86 478.394 130.445V132.591C478.394 134.176 478.79 135.356 479.583 136.129C480.375 136.902 481.4 137.289 482.657 137.289ZM504.578 139.348C503.186 139.348 502.016 139.087 501.069 138.565C500.141 138.024 499.338 137.308 498.662 136.419L500.315 135.085C500.895 135.82 501.542 136.39 502.258 136.796C502.973 137.183 503.804 137.376 504.752 137.376C505.738 137.376 506.501 137.163 507.043 136.738C507.603 136.313 507.884 135.713 507.884 134.94C507.884 134.36 507.69 133.867 507.304 133.461C506.936 133.036 506.26 132.746 505.274 132.591L504.085 132.417C503.389 132.32 502.751 132.175 502.171 131.982C501.591 131.769 501.078 131.499 500.634 131.17C500.208 130.822 499.87 130.397 499.619 129.894C499.387 129.391 499.271 128.792 499.271 128.096C499.271 127.361 499.406 126.723 499.677 126.182C499.947 125.621 500.315 125.157 500.779 124.79C501.262 124.423 501.832 124.152 502.49 123.978C503.147 123.785 503.853 123.688 504.607 123.688C505.825 123.688 506.84 123.901 507.652 124.326C508.483 124.751 509.208 125.341 509.827 126.095L508.29 127.487C507.961 127.023 507.478 126.607 506.84 126.24C506.202 125.853 505.399 125.66 504.433 125.66C503.466 125.66 502.731 125.873 502.229 126.298C501.745 126.704 501.504 127.265 501.504 127.98C501.504 128.715 501.745 129.246 502.229 129.575C502.731 129.904 503.447 130.145 504.375 130.3L505.535 130.474C507.197 130.725 508.377 131.209 509.073 131.924C509.769 132.62 510.117 133.538 510.117 134.679C510.117 136.129 509.624 137.27 508.638 138.101C507.652 138.932 506.298 139.348 504.578 139.348ZM519.841 139.348C518.816 139.348 517.888 139.164 517.057 138.797C516.245 138.43 515.539 137.908 514.94 137.231C514.36 136.535 513.905 135.713 513.577 134.766C513.267 133.799 513.113 132.717 513.113 131.518C513.113 130.339 513.267 129.266 513.577 128.299C513.905 127.332 514.36 126.511 514.94 125.834C515.539 125.138 516.245 124.606 517.057 124.239C517.888 123.872 518.816 123.688 519.841 123.688C520.846 123.688 521.745 123.872 522.538 124.239C523.33 124.606 524.007 125.119 524.568 125.776C525.128 126.414 525.554 127.178 525.844 128.067C526.153 128.956 526.308 129.933 526.308 130.996V132.098H515.549V132.794C515.549 133.432 515.645 134.031 515.839 134.592C516.051 135.133 516.341 135.607 516.709 136.013C517.095 136.419 517.559 136.738 518.101 136.97C518.661 137.202 519.29 137.318 519.986 137.318C520.933 137.318 521.755 137.096 522.451 136.651C523.166 136.206 523.717 135.568 524.104 134.737L525.757 135.926C525.273 136.951 524.519 137.782 523.495 138.42C522.47 139.039 521.252 139.348 519.841 139.348ZM519.841 125.631C519.203 125.631 518.623 125.747 518.101 125.979C517.579 126.192 517.124 126.501 516.738 126.907C516.37 127.313 516.08 127.796 515.868 128.357C515.655 128.898 515.549 129.498 515.549 130.155V130.358H523.814V130.039C523.814 128.705 523.446 127.642 522.712 126.849C521.996 126.037 521.039 125.631 519.841 125.631ZM539.353 136.564H539.237C539.082 136.912 538.889 137.26 538.657 137.608C538.444 137.937 538.173 138.236 537.845 138.507C537.516 138.758 537.12 138.961 536.656 139.116C536.192 139.271 535.65 139.348 535.032 139.348C533.485 139.348 532.257 138.855 531.349 137.869C530.44 136.864 529.986 135.452 529.986 133.635V124.036H532.306V133.229C532.306 135.916 533.446 137.26 535.728 137.26C536.192 137.26 536.636 137.202 537.062 137.086C537.506 136.97 537.893 136.796 538.222 136.564C538.57 136.332 538.84 136.042 539.034 135.694C539.246 135.327 539.353 134.892 539.353 134.389V124.036H541.673V139H539.353V136.564ZM556.772 139L551.523 124.036H553.843L556.453 131.46L558.077 136.564H558.222L559.846 131.46L562.514 124.036H564.747L559.469 139H556.772ZM573.139 139.348C572.115 139.348 571.187 139.164 570.355 138.797C569.543 138.43 568.838 137.908 568.238 137.231C567.658 136.535 567.204 135.713 566.875 134.766C566.566 133.799 566.411 132.717 566.411 131.518C566.411 130.339 566.566 129.266 566.875 128.299C567.204 127.332 567.658 126.511 568.238 125.834C568.838 125.138 569.543 124.606 570.355 124.239C571.187 123.872 572.115 123.688 573.139 123.688C574.145 123.688 575.044 123.872 575.836 124.239C576.629 124.606 577.306 125.119 577.866 125.776C578.427 126.414 578.852 127.178 579.142 128.067C579.452 128.956 579.606 129.933 579.606 130.996V132.098H568.847V132.794C568.847 133.432 568.944 134.031 569.137 134.592C569.35 135.133 569.64 135.607 570.007 136.013C570.394 136.419 570.858 136.738 571.399 136.97C571.96 137.202 572.588 137.318 573.284 137.318C574.232 137.318 575.053 137.096 575.749 136.651C576.465 136.206 577.016 135.568 577.402 134.737L579.055 135.926C578.572 136.951 577.818 137.782 576.793 138.42C575.769 139.039 574.551 139.348 573.139 139.348ZM573.139 125.631C572.501 125.631 571.921 125.747 571.399 125.979C570.877 126.192 570.423 126.501 570.036 126.907C569.669 127.313 569.379 127.796 569.166 128.357C568.954 128.898 568.847 129.498 568.847 130.155V130.358H577.112V130.039C577.112 128.705 576.745 127.642 576.01 126.849C575.295 126.037 574.338 125.631 573.139 125.631ZM583.429 139V124.036H585.749V139H583.429ZM584.821 122.035L583.313 121.339L585.778 116.409L587.895 117.424L584.821 122.035ZM596.247 139.348C595.203 139.348 594.266 139.164 593.434 138.797C592.603 138.43 591.897 137.908 591.317 137.231C590.757 136.554 590.322 135.733 590.012 134.766C589.722 133.799 589.577 132.717 589.577 131.518C589.577 130.319 589.722 129.237 590.012 128.27C590.322 127.303 590.757 126.482 591.317 125.805C591.897 125.128 592.603 124.606 593.434 124.239C594.266 123.872 595.203 123.688 596.247 123.688C597.736 123.688 598.925 124.017 599.814 124.674C600.723 125.312 601.4 126.153 601.844 127.197L599.901 128.183C599.631 127.41 599.186 126.81 598.567 126.385C597.949 125.96 597.175 125.747 596.247 125.747C595.551 125.747 594.942 125.863 594.42 126.095C593.898 126.308 593.463 126.617 593.115 127.023C592.767 127.41 592.506 127.883 592.332 128.444C592.158 128.985 592.071 129.585 592.071 130.242V132.794C592.071 134.109 592.419 135.191 593.115 136.042C593.831 136.873 594.875 137.289 596.247 137.289C598.123 137.289 599.476 136.419 600.307 134.679L601.989 135.81C601.506 136.893 600.781 137.753 599.814 138.391C598.867 139.029 597.678 139.348 596.247 139.348ZM614.486 136.564H614.37C614.216 136.912 614.022 137.26 613.79 137.608C613.578 137.937 613.307 138.236 612.978 138.507C612.65 138.758 612.253 138.961 611.789 139.116C611.325 139.271 610.784 139.348 610.165 139.348C608.619 139.348 607.391 138.855 606.482 137.869C605.574 136.864 605.119 135.452 605.119 133.635V124.036H607.439V133.229C607.439 135.916 608.58 137.26 610.861 137.26C611.325 137.26 611.77 137.202 612.195 137.086C612.64 136.97 613.027 136.796 613.355 136.564C613.703 136.332 613.974 136.042 614.167 135.694C614.38 135.327 614.486 134.892 614.486 134.389V124.036H616.806V139H614.486V136.564ZM624.212 139C623.4 139 622.781 138.778 622.356 138.333C621.95 137.869 621.747 137.289 621.747 136.593V117.54H624.067V136.97H626.271V139H624.212ZM635.303 139.348C634.298 139.348 633.379 139.164 632.548 138.797C631.717 138.43 631.001 137.908 630.402 137.231C629.822 136.535 629.368 135.713 629.039 134.766C628.71 133.799 628.546 132.717 628.546 131.518C628.546 130.339 628.71 129.266 629.039 128.299C629.368 127.332 629.822 126.511 630.402 125.834C631.001 125.138 631.717 124.606 632.548 124.239C633.379 123.872 634.298 123.688 635.303 123.688C636.308 123.688 637.217 123.872 638.029 124.239C638.86 124.606 639.576 125.138 640.175 125.834C640.774 126.511 641.238 127.332 641.567 128.299C641.896 129.266 642.06 130.339 642.06 131.518C642.06 132.717 641.896 133.799 641.567 134.766C641.238 135.713 640.774 136.535 640.175 137.231C639.576 137.908 638.86 138.43 638.029 138.797C637.217 139.164 636.308 139.348 635.303 139.348ZM635.303 137.289C636.56 137.289 637.584 136.902 638.377 136.129C639.17 135.356 639.566 134.176 639.566 132.591V130.445C639.566 128.86 639.17 127.68 638.377 126.907C637.584 126.134 636.56 125.747 635.303 125.747C634.046 125.747 633.022 126.134 632.229 126.907C631.436 127.68 631.04 128.86 631.04 130.445V132.591C631.04 134.176 631.436 135.356 632.229 136.129C633.022 136.902 634.046 137.289 635.303 137.289ZM652.729 139V124.036H655.049V126.472H655.165C655.532 125.621 656.045 124.945 656.702 124.442C657.379 123.939 658.278 123.688 659.399 123.688C660.946 123.688 662.164 124.191 663.053 125.196C663.962 126.182 664.416 127.584 664.416 129.401V139H662.096V129.807C662.096 127.12 660.965 125.776 658.703 125.776C658.239 125.776 657.785 125.834 657.34 125.95C656.915 126.066 656.528 126.24 656.18 126.472C655.832 126.704 655.552 127.004 655.339 127.371C655.146 127.719 655.049 128.135 655.049 128.618V139H652.729ZM680.087 139C679.217 139 678.588 138.768 678.202 138.304C677.834 137.84 677.602 137.26 677.506 136.564H677.361C677.032 137.492 676.491 138.188 675.737 138.652C674.983 139.116 674.084 139.348 673.04 139.348C671.454 139.348 670.217 138.942 669.328 138.13C668.458 137.318 668.023 136.216 668.023 134.824C668.023 133.413 668.535 132.33 669.56 131.576C670.604 130.822 672.218 130.445 674.403 130.445H677.361V128.966C677.361 127.903 677.071 127.091 676.491 126.53C675.911 125.969 675.021 125.689 673.823 125.689C672.914 125.689 672.15 125.892 671.532 126.298C670.932 126.704 670.43 127.245 670.024 127.922L668.632 126.617C669.038 125.805 669.685 125.119 670.575 124.558C671.464 123.978 672.585 123.688 673.939 123.688C675.756 123.688 677.167 124.133 678.173 125.022C679.178 125.911 679.681 127.149 679.681 128.734V136.97H681.392V139H680.087ZM673.417 137.376C673.997 137.376 674.528 137.308 675.012 137.173C675.495 137.038 675.911 136.844 676.259 136.593C676.607 136.342 676.877 136.052 677.071 135.723C677.264 135.394 677.361 135.037 677.361 134.65V132.185H674.287C672.953 132.185 671.976 132.378 671.358 132.765C670.758 133.152 670.459 133.712 670.459 134.447V135.056C670.459 135.791 670.72 136.361 671.242 136.767C671.783 137.173 672.508 137.376 673.417 137.376ZM691.556 124.036H693.876V126.472H693.992C694.379 125.525 694.94 124.829 695.674 124.384C696.428 123.92 697.327 123.688 698.371 123.688C699.299 123.688 700.14 123.872 700.894 124.239C701.648 124.606 702.286 125.128 702.808 125.805C703.35 126.482 703.756 127.303 704.026 128.27C704.316 129.237 704.461 130.319 704.461 131.518C704.461 132.717 704.316 133.799 704.026 134.766C703.756 135.733 703.35 136.554 702.808 137.231C702.286 137.908 701.648 138.43 700.894 138.797C700.14 139.164 699.299 139.348 698.371 139.348C696.341 139.348 694.882 138.42 693.992 136.564H693.876V144.8H691.556V124.036ZM697.733 137.26C699.048 137.26 700.082 136.854 700.836 136.042C701.59 135.211 701.967 134.128 701.967 132.794V130.242C701.967 128.908 701.59 127.835 700.836 127.023C700.082 126.192 699.048 125.776 697.733 125.776C697.211 125.776 696.709 125.853 696.225 126.008C695.761 126.143 695.355 126.337 695.007 126.588C694.659 126.839 694.379 127.149 694.166 127.516C693.973 127.864 693.876 128.241 693.876 128.647V134.215C693.876 134.698 693.973 135.133 694.166 135.52C694.379 135.887 694.659 136.206 695.007 136.477C695.355 136.728 695.761 136.922 696.225 137.057C696.709 137.192 697.211 137.26 697.733 137.26ZM719.254 139C718.384 139 717.755 138.768 717.369 138.304C717.001 137.84 716.769 137.26 716.673 136.564H716.528C716.199 137.492 715.658 138.188 714.904 138.652C714.15 139.116 713.251 139.348 712.207 139.348C710.621 139.348 709.384 138.942 708.495 138.13C707.625 137.318 707.19 136.216 707.19 134.824C707.19 133.413 707.702 132.33 708.727 131.576C709.771 130.822 711.385 130.445 713.57 130.445H716.528V128.966C716.528 127.903 716.238 127.091 715.658 126.53C715.078 125.969 714.188 125.689 712.99 125.689C712.081 125.689 711.317 125.892 710.699 126.298C710.099 126.704 709.597 127.245 709.191 127.922L707.799 126.617C708.205 125.805 708.852 125.119 709.742 124.558C710.631 123.978 711.752 123.688 713.106 123.688C714.923 123.688 716.334 124.133 717.34 125.022C718.345 125.911 718.848 127.149 718.848 128.734V136.97H720.559V139H719.254ZM712.584 137.376C713.164 137.376 713.695 137.308 714.179 137.173C714.662 137.038 715.078 136.844 715.426 136.593C715.774 136.342 716.044 136.052 716.238 135.723C716.431 135.394 716.528 135.037 716.528 134.65V132.185H713.454C712.12 132.185 711.143 132.378 710.525 132.765C709.925 133.152 709.626 133.712 709.626 134.447V135.056C709.626 135.791 709.887 136.361 710.409 136.767C710.95 137.173 711.675 137.376 712.584 137.376ZM726.335 139C725.523 139 724.904 138.778 724.479 138.333C724.073 137.869 723.87 137.289 723.87 136.593V117.54H726.19V136.97H728.394V139H726.335ZM731.771 139V124.036H734.091V126.472H734.207C734.381 126.085 734.574 125.728 734.787 125.399C735.019 125.051 735.29 124.751 735.599 124.5C735.928 124.249 736.305 124.055 736.73 123.92C737.155 123.765 737.658 123.688 738.238 123.688C739.224 123.688 740.133 123.93 740.964 124.413C741.795 124.877 742.414 125.65 742.82 126.733H742.878C743.149 125.921 743.651 125.215 744.386 124.616C745.14 123.997 746.155 123.688 747.431 123.688C748.958 123.688 750.147 124.191 750.998 125.196C751.868 126.182 752.303 127.584 752.303 129.401V139H749.983V129.807C749.983 128.473 749.722 127.468 749.2 126.791C748.678 126.114 747.847 125.776 746.706 125.776C746.242 125.776 745.797 125.834 745.372 125.95C744.966 126.066 744.599 126.24 744.27 126.472C743.941 126.704 743.68 127.004 743.487 127.371C743.294 127.719 743.197 128.135 743.197 128.618V139H740.877V129.807C740.877 128.473 740.616 127.468 740.094 126.791C739.572 126.114 738.76 125.776 737.658 125.776C737.194 125.776 736.749 125.834 736.324 125.95C735.899 126.066 735.522 126.24 735.193 126.472C734.864 126.704 734.594 127.004 734.381 127.371C734.188 127.719 734.091 128.135 734.091 128.618V139H731.771ZM767.965 139C767.095 139 766.466 138.768 766.08 138.304C765.712 137.84 765.48 137.26 765.384 136.564H765.239C764.91 137.492 764.369 138.188 763.615 138.652C762.861 139.116 761.962 139.348 760.918 139.348C759.332 139.348 758.095 138.942 757.206 138.13C756.336 137.318 755.901 136.216 755.901 134.824C755.901 133.413 756.413 132.33 757.438 131.576C758.482 130.822 760.096 130.445 762.281 130.445H765.239V128.966C765.239 127.903 764.949 127.091 764.369 126.53C763.789 125.969 762.899 125.689 761.701 125.689C760.792 125.689 760.028 125.892 759.41 126.298C758.81 126.704 758.308 127.245 757.902 127.922L756.51 126.617C756.916 125.805 757.563 125.119 758.453 124.558C759.342 123.978 760.463 123.688 761.817 123.688C763.634 123.688 765.045 124.133 766.051 125.022C767.056 125.911 767.559 127.149 767.559 128.734V136.97H769.27V139H767.965ZM761.295 137.376C761.875 137.376 762.406 137.308 762.89 137.173C763.373 137.038 763.789 136.844 764.137 136.593C764.485 136.342 764.755 136.052 764.949 135.723C765.142 135.394 765.239 135.037 765.239 134.65V132.185H762.165C760.831 132.185 759.854 132.378 759.236 132.765C758.636 133.152 758.337 133.712 758.337 134.447V135.056C758.337 135.791 758.598 136.361 759.12 136.767C759.661 137.173 760.386 137.376 761.295 137.376ZM789.004 136.564H788.888C787.98 138.42 786.52 139.348 784.509 139.348C783.581 139.348 782.74 139.164 781.986 138.797C781.232 138.43 780.585 137.908 780.043 137.231C779.521 136.554 779.115 135.733 778.825 134.766C778.555 133.799 778.419 132.717 778.419 131.518C778.419 130.319 778.555 129.237 778.825 128.27C779.115 127.303 779.521 126.482 780.043 125.805C780.585 125.128 781.232 124.606 781.986 124.239C782.74 123.872 783.581 123.688 784.509 123.688C785.553 123.688 786.443 123.92 787.177 124.384C787.931 124.829 788.502 125.525 788.888 126.472H789.004V117.54H791.324V139H789.004V136.564ZM785.147 137.26C785.669 137.26 786.162 137.192 786.626 137.057C787.11 136.922 787.525 136.728 787.873 136.477C788.221 136.206 788.492 135.887 788.685 135.52C788.898 135.133 789.004 134.698 789.004 134.215V128.647C789.004 128.241 788.898 127.864 788.685 127.516C788.492 127.149 788.221 126.839 787.873 126.588C787.525 126.337 787.11 126.143 786.626 126.008C786.162 125.853 785.669 125.776 785.147 125.776C783.833 125.776 782.798 126.192 782.044 127.023C781.29 127.835 780.913 128.908 780.913 130.242V132.794C780.913 134.128 781.29 135.211 782.044 136.042C782.798 136.854 783.833 137.26 785.147 137.26ZM807.132 139C806.262 139 805.633 138.768 805.247 138.304C804.879 137.84 804.647 137.26 804.551 136.564H804.406C804.077 137.492 803.536 138.188 802.782 138.652C802.028 139.116 801.129 139.348 800.085 139.348C798.499 139.348 797.262 138.942 796.373 138.13C795.503 137.318 795.068 136.216 795.068 134.824C795.068 133.413 795.58 132.33 796.605 131.576C797.649 130.822 799.263 130.445 801.448 130.445H804.406V128.966C804.406 127.903 804.116 127.091 803.536 126.53C802.956 125.969 802.066 125.689 800.868 125.689C799.959 125.689 799.195 125.892 798.577 126.298C797.977 126.704 797.475 127.245 797.069 127.922L795.677 126.617C796.083 125.805 796.73 125.119 797.62 124.558C798.509 123.978 799.63 123.688 800.984 123.688C802.801 123.688 804.212 124.133 805.218 125.022C806.223 125.911 806.726 127.149 806.726 128.734V136.97H808.437V139H807.132ZM800.462 137.376C801.042 137.376 801.573 137.308 802.057 137.173C802.54 137.038 802.956 136.844 803.304 136.593C803.652 136.342 803.922 136.052 804.116 135.723C804.309 135.394 804.406 135.037 804.406 134.65V132.185H801.332C799.998 132.185 799.021 132.378 798.403 132.765C797.803 133.152 797.504 133.712 797.504 134.447V135.056C797.504 135.791 797.765 136.361 798.287 136.767C798.828 137.173 799.553 137.376 800.462 137.376ZM823.096 139.348C821.704 139.348 820.535 139.087 819.587 138.565C818.659 138.024 817.857 137.308 817.18 136.419L818.833 135.085C819.413 135.82 820.061 136.39 820.776 136.796C821.492 137.183 822.323 137.376 823.27 137.376C824.256 137.376 825.02 137.163 825.561 136.738C826.122 136.313 826.402 135.713 826.402 134.94C826.402 134.36 826.209 133.867 825.822 133.461C825.455 133.036 824.778 132.746 823.792 132.591L822.603 132.417C821.907 132.32 821.269 132.175 820.689 131.982C820.109 131.769 819.597 131.499 819.152 131.17C818.727 130.822 818.389 130.397 818.137 129.894C817.905 129.391 817.789 128.792 817.789 128.096C817.789 127.361 817.925 126.723 818.195 126.182C818.466 125.621 818.833 125.157 819.297 124.79C819.781 124.423 820.351 124.152 821.008 123.978C821.666 123.785 822.371 123.688 823.125 123.688C824.343 123.688 825.358 123.901 826.17 124.326C827.002 124.751 827.727 125.341 828.345 126.095L826.808 127.487C826.48 127.023 825.996 126.607 825.358 126.24C824.72 125.853 823.918 125.66 822.951 125.66C821.985 125.66 821.25 125.873 820.747 126.298C820.264 126.704 820.022 127.265 820.022 127.98C820.022 128.715 820.264 129.246 820.747 129.575C821.25 129.904 821.965 130.145 822.893 130.3L824.053 130.474C825.716 130.725 826.895 131.209 827.591 131.924C828.287 132.62 828.635 133.538 828.635 134.679C828.635 136.129 828.142 137.27 827.156 138.101C826.17 138.932 824.817 139.348 823.096 139.348ZM841.955 136.564H841.839C841.684 136.912 841.491 137.26 841.259 137.608C841.046 137.937 840.776 138.236 840.447 138.507C840.118 138.758 839.722 138.961 839.258 139.116C838.794 139.271 838.253 139.348 837.634 139.348C836.087 139.348 834.86 138.855 833.951 137.869C833.042 136.864 832.588 135.452 832.588 133.635V124.036H834.908V133.229C834.908 135.916 836.049 137.26 838.33 137.26C838.794 137.26 839.239 137.202 839.664 137.086C840.109 136.97 840.495 136.796 840.824 136.564C841.172 136.332 841.443 136.042 841.636 135.694C841.849 135.327 841.955 134.892 841.955 134.389V124.036H844.275V139H841.955V136.564ZM860.09 139C859.22 139 858.592 138.768 858.205 138.304C857.838 137.84 857.606 137.26 857.509 136.564H857.364C857.036 137.492 856.494 138.188 855.74 138.652C854.986 139.116 854.087 139.348 853.043 139.348C851.458 139.348 850.221 138.942 849.331 138.13C848.461 137.318 848.026 136.216 848.026 134.824C848.026 133.413 848.539 132.33 849.563 131.576C850.607 130.822 852.222 130.445 854.406 130.445H857.364V128.966C857.364 127.903 857.074 127.091 856.494 126.53C855.914 125.969 855.025 125.689 853.826 125.689C852.918 125.689 852.154 125.892 851.535 126.298C850.936 126.704 850.433 127.245 850.027 127.922L848.635 126.617C849.041 125.805 849.689 125.119 850.578 124.558C851.468 123.978 852.589 123.688 853.942 123.688C855.76 123.688 857.171 124.133 858.176 125.022C859.182 125.911 859.684 127.149 859.684 128.734V136.97H861.395V139H860.09ZM853.42 137.376C854 137.376 854.532 137.308 855.015 137.173C855.499 137.038 855.914 136.844 856.262 136.593C856.61 136.342 856.881 136.052 857.074 135.723C857.268 135.394 857.364 135.037 857.364 134.65V132.185H854.29C852.956 132.185 851.98 132.378 851.361 132.765C850.762 133.152 850.462 133.712 850.462 134.447V135.056C850.462 135.791 850.723 136.361 851.245 136.767C851.787 137.173 852.512 137.376 853.42 137.376ZM871.56 139V124.036H873.88V126.472H873.996C874.17 126.085 874.364 125.728 874.576 125.399C874.808 125.051 875.079 124.751 875.388 124.5C875.717 124.249 876.094 124.055 876.519 123.92C876.945 123.765 877.447 123.688 878.027 123.688C879.013 123.688 879.922 123.93 880.753 124.413C881.585 124.877 882.203 125.65 882.609 126.733H882.667C882.938 125.921 883.441 125.215 884.175 124.616C884.929 123.997 885.944 123.688 887.22 123.688C888.748 123.688 889.937 124.191 890.787 125.196C891.657 126.182 892.092 127.584 892.092 129.401V139H889.772V129.807C889.772 128.473 889.511 127.468 888.989 126.791C888.467 126.114 887.636 125.776 886.495 125.776C886.031 125.776 885.587 125.834 885.161 125.95C884.755 126.066 884.388 126.24 884.059 126.472C883.731 126.704 883.47 127.004 883.276 127.371C883.083 127.719 882.986 128.135 882.986 128.618V139H880.666V129.807C880.666 128.473 880.405 127.468 879.883 126.791C879.361 126.114 878.549 125.776 877.447 125.776C876.983 125.776 876.539 125.834 876.113 125.95C875.688 126.066 875.311 126.24 874.982 126.472C874.654 126.704 874.383 127.004 874.17 127.371C873.977 127.719 873.88 128.135 873.88 128.618V139H871.56ZM907.754 139C906.884 139 906.255 138.768 905.869 138.304C905.501 137.84 905.269 137.26 905.173 136.564H905.028C904.699 137.492 904.158 138.188 903.404 138.652C902.65 139.116 901.751 139.348 900.707 139.348C899.121 139.348 897.884 138.942 896.995 138.13C896.125 137.318 895.69 136.216 895.69 134.824C895.69 133.413 896.202 132.33 897.227 131.576C898.271 130.822 899.885 130.445 902.07 130.445H905.028V128.966C905.028 127.903 904.738 127.091 904.158 126.53C903.578 125.969 902.688 125.689 901.49 125.689C900.581 125.689 899.817 125.892 899.199 126.298C898.599 126.704 898.097 127.245 897.691 127.922L896.299 126.617C896.705 125.805 897.352 125.119 898.242 124.558C899.131 123.978 900.252 123.688 901.606 123.688C903.423 123.688 904.834 124.133 905.84 125.022C906.845 125.911 907.348 127.149 907.348 128.734V136.97H909.059V139H907.754ZM901.084 137.376C901.664 137.376 902.195 137.308 902.679 137.173C903.162 137.038 903.578 136.844 903.926 136.593C904.274 136.342 904.544 136.052 904.738 135.723C904.931 135.394 905.028 135.037 905.028 134.65V132.185H901.954C900.62 132.185 899.643 132.378 899.025 132.765C898.425 133.152 898.126 133.712 898.126 134.447V135.056C898.126 135.791 898.387 136.361 898.909 136.767C899.45 137.173 900.175 137.376 901.084 137.376ZM903.868 121.252C903.365 121.252 902.93 121.165 902.563 120.991C902.195 120.817 901.857 120.653 901.548 120.498C901.084 120.247 900.687 120.073 900.359 119.976C900.049 119.86 899.769 119.802 899.518 119.802C899.189 119.802 898.899 119.87 898.648 120.005C898.396 120.14 898.126 120.334 897.836 120.585L896.879 119.425C897.149 119.038 897.507 118.69 897.952 118.381C898.396 118.052 898.957 117.888 899.634 117.888C900.136 117.888 900.571 117.975 900.939 118.149C901.306 118.323 901.644 118.487 901.954 118.642C902.418 118.893 902.804 119.077 903.114 119.193C903.442 119.29 903.732 119.338 903.984 119.338C904.312 119.338 904.602 119.27 904.854 119.135C905.105 119 905.376 118.806 905.666 118.555L906.623 119.715C906.352 120.102 905.994 120.459 905.55 120.788C905.105 121.097 904.544 121.252 903.868 121.252ZM918.025 139.348C917.019 139.348 916.101 139.164 915.27 138.797C914.438 138.43 913.723 137.908 913.124 137.231C912.544 136.535 912.089 135.713 911.761 134.766C911.432 133.799 911.268 132.717 911.268 131.518C911.268 130.339 911.432 129.266 911.761 128.299C912.089 127.332 912.544 126.511 913.124 125.834C913.723 125.138 914.438 124.606 915.27 124.239C916.101 123.872 917.019 123.688 918.025 123.688C919.03 123.688 919.939 123.872 920.751 124.239C921.582 124.606 922.297 125.138 922.897 125.834C923.496 126.511 923.96 127.332 924.289 128.299C924.617 129.266 924.782 130.339 924.782 131.518C924.782 132.717 924.617 133.799 924.289 134.766C923.96 135.713 923.496 136.535 922.897 137.231C922.297 137.908 921.582 138.43 920.751 138.797C919.939 139.164 919.03 139.348 918.025 139.348ZM918.025 137.289C919.281 137.289 920.306 136.902 921.099 136.129C921.891 135.356 922.288 134.176 922.288 132.591V130.445C922.288 128.86 921.891 127.68 921.099 126.907C920.306 126.134 919.281 125.747 918.025 125.747C916.768 125.747 915.743 126.134 914.951 126.907C914.158 127.68 913.762 128.86 913.762 130.445V132.591C913.762 134.176 914.158 135.356 914.951 136.129C915.743 136.902 916.768 137.289 918.025 137.289ZM929.51 135.607C930.129 135.607 930.573 135.771 930.844 136.1C931.134 136.409 931.279 136.815 931.279 137.318V137.724C931.279 138.517 931.047 139.387 930.583 140.334C930.119 141.301 929.471 142.142 928.64 142.857H926.697C927.277 142.238 927.741 141.649 928.089 141.088C928.456 140.547 928.717 139.938 928.872 139.261C928.485 139.164 928.195 138.981 928.002 138.71C927.828 138.439 927.741 138.111 927.741 137.724V137.318C927.741 136.815 927.876 136.409 928.147 136.1C928.437 135.771 928.891 135.607 929.51 135.607ZM243.022 177.348C241.978 177.348 241.041 177.164 240.209 176.797C239.378 176.43 238.672 175.908 238.092 175.231C237.532 174.554 237.097 173.733 236.787 172.766C236.497 171.799 236.352 170.717 236.352 169.518C236.352 168.319 236.497 167.237 236.787 166.27C237.097 165.303 237.532 164.482 238.092 163.805C238.672 163.128 239.378 162.606 240.209 162.239C241.041 161.872 241.978 161.688 243.022 161.688C244.511 161.688 245.7 162.017 246.589 162.674C247.498 163.312 248.175 164.153 248.619 165.197L246.676 166.183C246.406 165.41 245.961 164.81 245.342 164.385C244.724 163.96 243.95 163.747 243.022 163.747C242.326 163.747 241.717 163.863 241.195 164.095C240.673 164.308 240.238 164.617 239.89 165.023C239.542 165.41 239.281 165.883 239.107 166.444C238.933 166.985 238.846 167.585 238.846 168.242V170.794C238.846 172.109 239.194 173.191 239.89 174.042C240.606 174.873 241.65 175.289 243.022 175.289C244.898 175.289 246.251 174.419 247.082 172.679L248.764 173.81C248.281 174.893 247.556 175.753 246.589 176.391C245.642 177.029 244.453 177.348 243.022 177.348ZM257.524 177.348C256.519 177.348 255.601 177.164 254.769 176.797C253.938 176.43 253.223 175.908 252.623 175.231C252.043 174.535 251.589 173.713 251.26 172.766C250.932 171.799 250.767 170.717 250.767 169.518C250.767 168.339 250.932 167.266 251.26 166.299C251.589 165.332 252.043 164.511 252.623 163.834C253.223 163.138 253.938 162.606 254.769 162.239C255.601 161.872 256.519 161.688 257.524 161.688C258.53 161.688 259.438 161.872 260.25 162.239C261.082 162.606 261.797 163.138 262.396 163.834C262.996 164.511 263.46 165.332 263.788 166.299C264.117 167.266 264.281 168.339 264.281 169.518C264.281 170.717 264.117 171.799 263.788 172.766C263.46 173.713 262.996 174.535 262.396 175.231C261.797 175.908 261.082 176.43 260.25 176.797C259.438 177.164 258.53 177.348 257.524 177.348ZM257.524 175.289C258.781 175.289 259.806 174.902 260.598 174.129C261.391 173.356 261.787 172.176 261.787 170.591V168.445C261.787 166.86 261.391 165.68 260.598 164.907C259.806 164.134 258.781 163.747 257.524 163.747C256.268 163.747 255.243 164.134 254.45 164.907C253.658 165.68 253.261 166.86 253.261 168.445V170.591C253.261 172.176 253.658 173.356 254.45 174.129C255.243 174.902 256.268 175.289 257.524 175.289ZM268.097 177V162.036H270.417V164.472H270.533C270.707 164.085 270.9 163.728 271.113 163.399C271.345 163.051 271.616 162.751 271.925 162.5C272.254 162.249 272.631 162.055 273.056 161.92C273.481 161.765 273.984 161.688 274.564 161.688C275.55 161.688 276.459 161.93 277.29 162.413C278.121 162.877 278.74 163.65 279.146 164.733H279.204C279.475 163.921 279.977 163.215 280.712 162.616C281.466 161.997 282.481 161.688 283.757 161.688C285.284 161.688 286.473 162.191 287.324 163.196C288.194 164.182 288.629 165.584 288.629 167.401V177H286.309V167.807C286.309 166.473 286.048 165.468 285.526 164.791C285.004 164.114 284.173 163.776 283.032 163.776C282.568 163.776 282.123 163.834 281.698 163.95C281.292 164.066 280.925 164.24 280.596 164.472C280.267 164.704 280.006 165.004 279.813 165.371C279.62 165.719 279.523 166.135 279.523 166.618V177H277.203V167.807C277.203 166.473 276.942 165.468 276.42 164.791C275.898 164.114 275.086 163.776 273.984 163.776C273.52 163.776 273.075 163.834 272.65 163.95C272.225 164.066 271.848 164.24 271.519 164.472C271.19 164.704 270.92 165.004 270.707 165.371C270.514 165.719 270.417 166.135 270.417 166.618V177H268.097ZM311.144 177C310.274 177 309.645 176.768 309.259 176.304C308.891 175.84 308.659 175.26 308.563 174.564H308.418C308.089 175.492 307.548 176.188 306.794 176.652C306.04 177.116 305.141 177.348 304.097 177.348C302.511 177.348 301.274 176.942 300.385 176.13C299.515 175.318 299.08 174.216 299.08 172.824C299.08 171.413 299.592 170.33 300.617 169.576C301.661 168.822 303.275 168.445 305.46 168.445H308.418V166.966C308.418 165.903 308.128 165.091 307.548 164.53C306.968 163.969 306.078 163.689 304.88 163.689C303.971 163.689 303.207 163.892 302.589 164.298C301.989 164.704 301.487 165.245 301.081 165.922L299.689 164.617C300.095 163.805 300.742 163.119 301.632 162.558C302.521 161.978 303.642 161.688 304.996 161.688C306.813 161.688 308.224 162.133 309.23 163.022C310.235 163.911 310.738 165.149 310.738 166.734V174.97H312.449V177H311.144ZM304.474 175.376C305.054 175.376 305.585 175.308 306.069 175.173C306.552 175.038 306.968 174.844 307.316 174.593C307.664 174.342 307.934 174.052 308.128 173.723C308.321 173.394 308.418 173.037 308.418 172.65V170.185H305.344C304.01 170.185 303.033 170.378 302.415 170.765C301.815 171.152 301.516 171.712 301.516 172.447V173.056C301.516 173.791 301.777 174.361 302.299 174.767C302.84 175.173 303.565 175.376 304.474 175.376ZM322.613 162.036H324.933V164.472H325.049C325.436 163.525 325.997 162.829 326.731 162.384C327.485 161.92 328.384 161.688 329.428 161.688C330.356 161.688 331.197 161.872 331.951 162.239C332.705 162.606 333.343 163.128 333.865 163.805C334.407 164.482 334.813 165.303 335.083 166.27C335.373 167.237 335.518 168.319 335.518 169.518C335.518 170.717 335.373 171.799 335.083 172.766C334.813 173.733 334.407 174.554 333.865 175.231C333.343 175.908 332.705 176.43 331.951 176.797C331.197 177.164 330.356 177.348 329.428 177.348C327.398 177.348 325.939 176.42 325.049 174.564H324.933V182.8H322.613V162.036ZM328.79 175.26C330.105 175.26 331.139 174.854 331.893 174.042C332.647 173.211 333.024 172.128 333.024 170.794V168.242C333.024 166.908 332.647 165.835 331.893 165.023C331.139 164.192 330.105 163.776 328.79 163.776C328.268 163.776 327.766 163.853 327.282 164.008C326.818 164.143 326.412 164.337 326.064 164.588C325.716 164.839 325.436 165.149 325.223 165.516C325.03 165.864 324.933 166.241 324.933 166.647V172.215C324.933 172.698 325.03 173.133 325.223 173.52C325.436 173.887 325.716 174.206 326.064 174.477C326.412 174.728 326.818 174.922 327.282 175.057C327.766 175.192 328.268 175.26 328.79 175.26ZM339.436 177V162.036H341.756V164.791H341.901C342.171 164.076 342.655 163.438 343.351 162.877C344.047 162.316 345.004 162.036 346.222 162.036H347.121V164.356H345.758C344.501 164.356 343.515 164.598 342.8 165.081C342.104 165.545 341.756 166.135 341.756 166.85V177H339.436ZM360.846 177C359.976 177 359.348 176.768 358.961 176.304C358.594 175.84 358.362 175.26 358.265 174.564H358.12C357.791 175.492 357.25 176.188 356.496 176.652C355.742 177.116 354.843 177.348 353.799 177.348C352.214 177.348 350.976 176.942 350.087 176.13C349.217 175.318 348.782 174.216 348.782 172.824C348.782 171.413 349.294 170.33 350.319 169.576C351.363 168.822 352.977 168.445 355.162 168.445H358.12V166.966C358.12 165.903 357.83 165.091 357.25 164.53C356.67 163.969 355.781 163.689 354.582 163.689C353.673 163.689 352.91 163.892 352.291 164.298C351.692 164.704 351.189 165.245 350.783 165.922L349.391 164.617C349.797 163.805 350.445 163.119 351.334 162.558C352.223 161.978 353.345 161.688 354.698 161.688C356.515 161.688 357.927 162.133 358.932 163.022C359.937 163.911 360.44 165.149 360.44 166.734V174.97H362.151V177H360.846ZM354.176 175.376C354.756 175.376 355.288 175.308 355.771 175.173C356.254 175.038 356.67 174.844 357.018 174.593C357.366 174.342 357.637 174.052 357.83 173.723C358.023 173.394 358.12 173.037 358.12 172.65V170.185H355.046C353.712 170.185 352.736 170.378 352.117 170.765C351.518 171.152 351.218 171.712 351.218 172.447V173.056C351.218 173.791 351.479 174.361 352.001 174.767C352.542 175.173 353.267 175.376 354.176 175.376ZM368.768 177C367.956 177 367.337 176.778 366.912 176.333C366.506 175.869 366.303 175.27 366.303 174.535V164.066H363.838V162.036H365.23C365.733 162.036 366.071 161.939 366.245 161.746C366.438 161.533 366.535 161.176 366.535 160.673V157.889H368.623V162.036H371.9V164.066H368.623V174.97H371.668V177H368.768ZM376.789 158.527C376.286 158.527 375.919 158.411 375.687 158.179C375.474 157.928 375.368 157.609 375.368 157.222V156.845C375.368 156.458 375.474 156.149 375.687 155.917C375.919 155.666 376.286 155.54 376.789 155.54C377.292 155.54 377.649 155.666 377.862 155.917C378.094 156.149 378.21 156.458 378.21 156.845V157.222C378.21 157.609 378.094 157.928 377.862 158.179C377.649 158.411 377.292 158.527 376.789 158.527ZM375.629 162.036H377.949V177H375.629V162.036ZM388.447 177.348C387.403 177.348 386.465 177.164 385.634 176.797C384.803 176.43 384.097 175.908 383.517 175.231C382.956 174.554 382.521 173.733 382.212 172.766C381.922 171.799 381.777 170.717 381.777 169.518C381.777 168.319 381.922 167.237 382.212 166.27C382.521 165.303 382.956 164.482 383.517 163.805C384.097 163.128 384.803 162.606 385.634 162.239C386.465 161.872 387.403 161.688 388.447 161.688C389.936 161.688 391.125 162.017 392.014 162.674C392.923 163.312 393.599 164.153 394.044 165.197L392.101 166.183C391.83 165.41 391.386 164.81 390.767 164.385C390.148 163.96 389.375 163.747 388.447 163.747C387.751 163.747 387.142 163.863 386.62 164.095C386.098 164.308 385.663 164.617 385.315 165.023C384.967 165.41 384.706 165.883 384.532 166.444C384.358 166.985 384.271 167.585 384.271 168.242V170.794C384.271 172.109 384.619 173.191 385.315 174.042C386.03 174.873 387.074 175.289 388.447 175.289C390.322 175.289 391.676 174.419 392.507 172.679L394.189 173.81C393.706 174.893 392.981 175.753 392.014 176.391C391.067 177.029 389.878 177.348 388.447 177.348ZM398.624 158.527C398.121 158.527 397.754 158.411 397.522 158.179C397.309 157.928 397.203 157.609 397.203 157.222V156.845C397.203 156.458 397.309 156.149 397.522 155.917C397.754 155.666 398.121 155.54 398.624 155.54C399.127 155.54 399.484 155.666 399.697 155.917C399.929 156.149 400.045 156.458 400.045 156.845V157.222C400.045 157.609 399.929 157.928 399.697 158.179C399.484 158.411 399.127 158.527 398.624 158.527ZM397.464 162.036H399.784V177H397.464V162.036ZM414.284 174.564H414.168C413.259 176.42 411.8 177.348 409.789 177.348C408.861 177.348 408.02 177.164 407.266 176.797C406.512 176.43 405.864 175.908 405.323 175.231C404.801 174.554 404.395 173.733 404.105 172.766C403.834 171.799 403.699 170.717 403.699 169.518C403.699 168.319 403.834 167.237 404.105 166.27C404.395 165.303 404.801 164.482 405.323 163.805C405.864 163.128 406.512 162.606 407.266 162.239C408.02 161.872 408.861 161.688 409.789 161.688C410.833 161.688 411.722 161.92 412.457 162.384C413.211 162.829 413.781 163.525 414.168 164.472H414.284V155.54H416.604V177H414.284V174.564ZM410.427 175.26C410.949 175.26 411.442 175.192 411.906 175.057C412.389 174.922 412.805 174.728 413.153 174.477C413.501 174.206 413.772 173.887 413.965 173.52C414.178 173.133 414.284 172.698 414.284 172.215V166.647C414.284 166.241 414.178 165.864 413.965 165.516C413.772 165.149 413.501 164.839 413.153 164.588C412.805 164.337 412.389 164.143 411.906 164.008C411.442 163.853 410.949 163.776 410.427 163.776C409.112 163.776 408.078 164.192 407.324 165.023C406.57 165.835 406.193 166.908 406.193 168.242V170.794C406.193 172.128 406.57 173.211 407.324 174.042C408.078 174.854 409.112 175.26 410.427 175.26ZM432.411 177C431.541 177 430.913 176.768 430.526 176.304C430.159 175.84 429.927 175.26 429.83 174.564H429.685C429.357 175.492 428.815 176.188 428.061 176.652C427.307 177.116 426.408 177.348 425.364 177.348C423.779 177.348 422.542 176.942 421.652 176.13C420.782 175.318 420.347 174.216 420.347 172.824C420.347 171.413 420.86 170.33 421.884 169.576C422.928 168.822 424.543 168.445 426.727 168.445H429.685V166.966C429.685 165.903 429.395 165.091 428.815 164.53C428.235 163.969 427.346 163.689 426.147 163.689C425.239 163.689 424.475 163.892 423.856 164.298C423.257 164.704 422.754 165.245 422.348 165.922L420.956 164.617C421.362 163.805 422.01 163.119 422.899 162.558C423.789 161.978 424.91 161.688 426.263 161.688C428.081 161.688 429.492 162.133 430.497 163.022C431.503 163.911 432.005 165.149 432.005 166.734V174.97H433.716V177H432.411ZM425.741 175.376C426.321 175.376 426.853 175.308 427.336 175.173C427.82 175.038 428.235 174.844 428.583 174.593C428.931 174.342 429.202 174.052 429.395 173.723C429.589 173.394 429.685 173.037 429.685 172.65V170.185H426.611C425.277 170.185 424.301 170.378 423.682 170.765C423.083 171.152 422.783 171.712 422.783 172.447V173.056C422.783 173.791 423.044 174.361 423.566 174.767C424.108 175.173 424.833 175.376 425.741 175.376ZM446.598 174.564H446.482C445.573 176.42 444.113 177.348 442.103 177.348C441.175 177.348 440.334 177.164 439.58 176.797C438.826 176.43 438.178 175.908 437.637 175.231C437.115 174.554 436.709 173.733 436.419 172.766C436.148 171.799 436.013 170.717 436.013 169.518C436.013 168.319 436.148 167.237 436.419 166.27C436.709 165.303 437.115 164.482 437.637 163.805C438.178 163.128 438.826 162.606 439.58 162.239C440.334 161.872 441.175 161.688 442.103 161.688C443.147 161.688 444.036 161.92 444.771 162.384C445.525 162.829 446.095 163.525 446.482 164.472H446.598V155.54H448.918V177H446.598V174.564ZM442.741 175.26C443.263 175.26 443.756 175.192 444.22 175.057C444.703 174.922 445.119 174.728 445.467 174.477C445.815 174.206 446.085 173.887 446.279 173.52C446.491 173.133 446.598 172.698 446.598 172.215V166.647C446.598 166.241 446.491 165.864 446.279 165.516C446.085 165.149 445.815 164.839 445.467 164.588C445.119 164.337 444.703 164.143 444.22 164.008C443.756 163.853 443.263 163.776 442.741 163.776C441.426 163.776 440.392 164.192 439.638 165.023C438.884 165.835 438.507 166.908 438.507 168.242V170.794C438.507 172.128 438.884 173.211 439.638 174.042C440.392 174.854 441.426 175.26 442.741 175.26ZM459.476 177.348C458.451 177.348 457.523 177.164 456.692 176.797C455.88 176.43 455.174 175.908 454.575 175.231C453.995 174.535 453.54 173.713 453.212 172.766C452.902 171.799 452.748 170.717 452.748 169.518C452.748 168.339 452.902 167.266 453.212 166.299C453.54 165.332 453.995 164.511 454.575 163.834C455.174 163.138 455.88 162.606 456.692 162.239C457.523 161.872 458.451 161.688 459.476 161.688C460.481 161.688 461.38 161.872 462.173 162.239C462.965 162.606 463.642 163.119 464.203 163.776C464.763 164.414 465.189 165.178 465.479 166.067C465.788 166.956 465.943 167.933 465.943 168.996V170.098H455.184V170.794C455.184 171.432 455.28 172.031 455.474 172.592C455.686 173.133 455.976 173.607 456.344 174.013C456.73 174.419 457.194 174.738 457.736 174.97C458.296 175.202 458.925 175.318 459.621 175.318C460.568 175.318 461.39 175.096 462.086 174.651C462.801 174.206 463.352 173.568 463.739 172.737L465.392 173.926C464.908 174.951 464.154 175.782 463.13 176.42C462.105 177.039 460.887 177.348 459.476 177.348ZM459.476 163.631C458.838 163.631 458.258 163.747 457.736 163.979C457.214 164.192 456.759 164.501 456.373 164.907C456.005 165.313 455.715 165.796 455.503 166.357C455.29 166.898 455.184 167.498 455.184 168.155V168.358H463.449V168.039C463.449 166.705 463.081 165.642 462.347 164.849C461.631 164.037 460.674 163.631 459.476 163.631ZM486.189 174.564H486.073C485.165 176.42 483.705 177.348 481.694 177.348C480.766 177.348 479.925 177.164 479.171 176.797C478.417 176.43 477.77 175.908 477.228 175.231C476.706 174.554 476.3 173.733 476.01 172.766C475.74 171.799 475.604 170.717 475.604 169.518C475.604 168.319 475.74 167.237 476.01 166.27C476.3 165.303 476.706 164.482 477.228 163.805C477.77 163.128 478.417 162.606 479.171 162.239C479.925 161.872 480.766 161.688 481.694 161.688C482.738 161.688 483.628 161.92 484.362 162.384C485.116 162.829 485.687 163.525 486.073 164.472H486.189V162.036H488.509V182.8H486.189V174.564ZM482.332 175.26C482.854 175.26 483.347 175.192 483.811 175.057C484.295 174.922 484.71 174.728 485.058 174.477C485.406 174.206 485.677 173.887 485.87 173.52C486.083 173.133 486.189 172.698 486.189 172.215V166.647C486.189 166.241 486.083 165.864 485.87 165.516C485.677 165.149 485.406 164.839 485.058 164.588C484.71 164.337 484.295 164.143 483.811 164.008C483.347 163.853 482.854 163.776 482.332 163.776C481.018 163.776 479.983 164.192 479.229 165.023C478.475 165.835 478.098 166.908 478.098 168.242V170.794C478.098 172.128 478.475 173.211 479.229 174.042C479.983 174.854 481.018 175.26 482.332 175.26ZM502.664 174.564H502.548C502.393 174.912 502.2 175.26 501.968 175.608C501.755 175.937 501.484 176.236 501.156 176.507C500.827 176.758 500.431 176.961 499.967 177.116C499.503 177.271 498.961 177.348 498.343 177.348C496.796 177.348 495.568 176.855 494.66 175.869C493.751 174.864 493.297 173.452 493.297 171.635V162.036H495.617V171.229C495.617 173.916 496.757 175.26 499.039 175.26C499.503 175.26 499.947 175.202 500.373 175.086C500.817 174.97 501.204 174.796 501.533 174.564C501.881 174.332 502.151 174.042 502.345 173.694C502.557 173.327 502.664 172.892 502.664 172.389V162.036H504.984V177H502.664V174.564ZM515.55 177.348C514.525 177.348 513.597 177.164 512.766 176.797C511.954 176.43 511.248 175.908 510.649 175.231C510.069 174.535 509.615 173.713 509.286 172.766C508.977 171.799 508.822 170.717 508.822 169.518C508.822 168.339 508.977 167.266 509.286 166.299C509.615 165.332 510.069 164.511 510.649 163.834C511.248 163.138 511.954 162.606 512.766 162.239C513.597 161.872 514.525 161.688 515.55 161.688C516.555 161.688 517.454 161.872 518.247 162.239C519.04 162.606 519.716 163.119 520.277 163.776C520.838 164.414 521.263 165.178 521.553 166.067C521.862 166.956 522.017 167.933 522.017 168.996V170.098H511.258V170.794C511.258 171.432 511.355 172.031 511.548 172.592C511.761 173.133 512.051 173.607 512.418 174.013C512.805 174.419 513.269 174.738 513.81 174.97C514.371 175.202 514.999 175.318 515.695 175.318C516.642 175.318 517.464 175.096 518.16 174.651C518.875 174.206 519.426 173.568 519.813 172.737L521.466 173.926C520.983 174.951 520.229 175.782 519.204 176.42C518.179 177.039 516.961 177.348 515.55 177.348ZM515.55 163.631C514.912 163.631 514.332 163.747 513.81 163.979C513.288 164.192 512.834 164.501 512.447 164.907C512.08 165.313 511.79 165.796 511.577 166.357C511.364 166.898 511.258 167.498 511.258 168.155V168.358H519.523V168.039C519.523 166.705 519.156 165.642 518.421 164.849C517.706 164.037 516.749 163.631 515.55 163.631ZM536 177L530.751 162.036H533.071L535.681 169.46L537.305 174.564H537.45L539.074 169.46L541.742 162.036H543.975L538.697 177H536ZM552.395 177.348C551.39 177.348 550.472 177.164 549.64 176.797C548.809 176.43 548.094 175.908 547.494 175.231C546.914 174.535 546.46 173.713 546.131 172.766C545.803 171.799 545.638 170.717 545.638 169.518C545.638 168.339 545.803 167.266 546.131 166.299C546.46 165.332 546.914 164.511 547.494 163.834C548.094 163.138 548.809 162.606 549.64 162.239C550.472 161.872 551.39 161.688 552.395 161.688C553.401 161.688 554.309 161.872 555.121 162.239C555.953 162.606 556.668 163.138 557.267 163.834C557.867 164.511 558.331 165.332 558.659 166.299C558.988 167.266 559.152 168.339 559.152 169.518C559.152 170.717 558.988 171.799 558.659 172.766C558.331 173.713 557.867 174.535 557.267 175.231C556.668 175.908 555.953 176.43 555.121 176.797C554.309 177.164 553.401 177.348 552.395 177.348ZM552.395 175.289C553.652 175.289 554.677 174.902 555.469 174.129C556.262 173.356 556.658 172.176 556.658 170.591V168.445C556.658 166.86 556.262 165.68 555.469 164.907C554.677 164.134 553.652 163.747 552.395 163.747C551.139 163.747 550.114 164.134 549.321 164.907C548.529 165.68 548.132 166.86 548.132 168.445V170.591C548.132 172.176 548.529 173.356 549.321 174.129C550.114 174.902 551.139 175.289 552.395 175.289ZM568.536 177.348C567.492 177.348 566.554 177.164 565.723 176.797C564.892 176.43 564.186 175.908 563.606 175.231C563.045 174.554 562.61 173.733 562.301 172.766C562.011 171.799 561.866 170.717 561.866 169.518C561.866 168.319 562.011 167.237 562.301 166.27C562.61 165.303 563.045 164.482 563.606 163.805C564.186 163.128 564.892 162.606 565.723 162.239C566.554 161.872 567.492 161.688 568.536 161.688C570.025 161.688 571.214 162.017 572.103 162.674C573.012 163.312 573.688 164.153 574.133 165.197L572.19 166.183C571.919 165.41 571.475 164.81 570.856 164.385C570.237 163.96 569.464 163.747 568.536 163.747C567.84 163.747 567.231 163.863 566.709 164.095C566.187 164.308 565.752 164.617 565.404 165.023C565.056 165.41 564.795 165.883 564.621 166.444C564.447 166.985 564.36 167.585 564.36 168.242V170.794C564.36 172.109 564.708 173.191 565.404 174.042C566.119 174.873 567.163 175.289 568.536 175.289C570.411 175.289 571.765 174.419 572.596 172.679L574.278 173.81C573.795 174.893 573.07 175.753 572.103 176.391C571.156 177.029 569.967 177.348 568.536 177.348ZM583.009 177.348C581.984 177.348 581.056 177.164 580.225 176.797C579.413 176.43 578.707 175.908 578.108 175.231C577.528 174.535 577.074 173.713 576.745 172.766C576.436 171.799 576.281 170.717 576.281 169.518C576.281 168.339 576.436 167.266 576.745 166.299C577.074 165.332 577.528 164.511 578.108 163.834C578.707 163.138 579.413 162.606 580.225 162.239C581.056 161.872 581.984 161.688 583.009 161.688C584.014 161.688 584.913 161.872 585.706 162.239C586.499 162.606 587.175 163.119 587.736 163.776C588.297 164.414 588.722 165.178 589.012 166.067C589.321 166.956 589.476 167.933 589.476 168.996V170.098H578.717V170.794C578.717 171.432 578.814 172.031 579.007 172.592C579.22 173.133 579.51 173.607 579.877 174.013C580.264 174.419 580.728 174.738 581.269 174.97C581.83 175.202 582.458 175.318 583.154 175.318C584.101 175.318 584.923 175.096 585.619 174.651C586.334 174.206 586.885 173.568 587.272 172.737L588.925 173.926C588.442 174.951 587.688 175.782 586.663 176.42C585.638 177.039 584.42 177.348 583.009 177.348ZM583.009 163.631C582.371 163.631 581.791 163.747 581.269 163.979C580.747 164.192 580.293 164.501 579.906 164.907C579.539 165.313 579.249 165.796 579.036 166.357C578.823 166.898 578.717 167.498 578.717 168.155V168.358H586.982V168.039C586.982 166.705 586.615 165.642 585.88 164.849C585.165 164.037 584.208 163.631 583.009 163.631ZM584.488 154.815L587.707 158.962L586.431 159.861L583.038 156.468L579.645 159.861L578.369 158.962L581.588 154.815H584.488ZM600.153 177V162.036H602.473V164.472H602.589C602.763 164.085 602.956 163.728 603.169 163.399C603.401 163.051 603.671 162.751 603.981 162.5C604.309 162.249 604.686 162.055 605.112 161.92C605.537 161.765 606.04 161.688 606.62 161.688C607.606 161.688 608.514 161.93 609.346 162.413C610.177 162.877 610.796 163.65 611.202 164.733H611.26C611.53 163.921 612.033 163.215 612.768 162.616C613.522 161.997 614.537 161.688 615.812 161.688C617.34 161.688 618.529 162.191 619.38 163.196C620.25 164.182 620.685 165.584 620.685 167.401V177H618.365V167.807C618.365 166.473 618.104 165.468 617.582 164.791C617.06 164.114 616.228 163.776 615.088 163.776C614.624 163.776 614.179 163.834 613.754 163.95C613.348 164.066 612.98 164.24 612.652 164.472C612.323 164.704 612.062 165.004 611.869 165.371C611.675 165.719 611.579 166.135 611.579 166.618V177H609.259V167.807C609.259 166.473 608.998 165.468 608.476 164.791C607.954 164.114 607.142 163.776 606.04 163.776C605.576 163.776 605.131 163.834 604.706 163.95C604.28 164.066 603.903 164.24 603.575 164.472C603.246 164.704 602.975 165.004 602.763 165.371C602.569 165.719 602.473 166.135 602.473 166.618V177H600.153ZM631.097 177.348C630.072 177.348 629.144 177.164 628.313 176.797C627.501 176.43 626.795 175.908 626.196 175.231C625.616 174.535 625.162 173.713 624.833 172.766C624.524 171.799 624.369 170.717 624.369 169.518C624.369 168.339 624.524 167.266 624.833 166.299C625.162 165.332 625.616 164.511 626.196 163.834C626.795 163.138 627.501 162.606 628.313 162.239C629.144 161.872 630.072 161.688 631.097 161.688C632.102 161.688 633.001 161.872 633.794 162.239C634.587 162.606 635.263 163.119 635.824 163.776C636.385 164.414 636.81 165.178 637.1 166.067C637.409 166.956 637.564 167.933 637.564 168.996V170.098H626.805V170.794C626.805 171.432 626.902 172.031 627.095 172.592C627.308 173.133 627.598 173.607 627.965 174.013C628.352 174.419 628.816 174.738 629.357 174.97C629.918 175.202 630.546 175.318 631.242 175.318C632.189 175.318 633.011 175.096 633.707 174.651C634.422 174.206 634.973 173.568 635.36 172.737L637.013 173.926C636.53 174.951 635.776 175.782 634.751 176.42C633.726 177.039 632.508 177.348 631.097 177.348ZM631.097 163.631C630.459 163.631 629.879 163.747 629.357 163.979C628.835 164.192 628.381 164.501 627.994 164.907C627.627 165.313 627.337 165.796 627.124 166.357C626.911 166.898 626.805 167.498 626.805 168.155V168.358H635.07V168.039C635.07 166.705 634.703 165.642 633.968 164.849C633.253 164.037 632.296 163.631 631.097 163.631ZM641.387 177V162.036H643.707V164.791H643.852C644.123 164.076 644.606 163.438 645.302 162.877C645.998 162.316 646.955 162.036 648.173 162.036H649.072V164.356H647.709C646.452 164.356 645.466 164.598 644.751 165.081C644.055 165.545 643.707 166.135 643.707 166.85V177H641.387ZM657.52 177.348C656.495 177.348 655.567 177.164 654.736 176.797C653.924 176.43 653.218 175.908 652.619 175.231C652.039 174.535 651.584 173.713 651.256 172.766C650.946 171.799 650.792 170.717 650.792 169.518C650.792 168.339 650.946 167.266 651.256 166.299C651.584 165.332 652.039 164.511 652.619 163.834C653.218 163.138 653.924 162.606 654.736 162.239C655.567 161.872 656.495 161.688 657.52 161.688C658.525 161.688 659.424 161.872 660.217 162.239C661.009 162.606 661.686 163.119 662.247 163.776C662.807 164.414 663.233 165.178 663.523 166.067C663.832 166.956 663.987 167.933 663.987 168.996V170.098H653.228V170.794C653.228 171.432 653.324 172.031 653.518 172.592C653.73 173.133 654.02 173.607 654.388 174.013C654.774 174.419 655.238 174.738 655.78 174.97C656.34 175.202 656.969 175.318 657.665 175.318C658.612 175.318 659.434 175.096 660.13 174.651C660.845 174.206 661.396 173.568 661.783 172.737L663.436 173.926C662.952 174.951 662.198 175.782 661.174 176.42C660.149 177.039 658.931 177.348 657.52 177.348ZM657.52 163.631C656.882 163.631 656.302 163.747 655.78 163.979C655.258 164.192 654.803 164.501 654.417 164.907C654.049 165.313 653.759 165.796 653.547 166.357C653.334 166.898 653.228 167.498 653.228 168.155V168.358H661.493V168.039C661.493 166.705 661.125 165.642 660.391 164.849C659.675 164.037 658.718 163.631 657.52 163.631ZM673.378 177.348C672.334 177.348 671.396 177.164 670.565 176.797C669.733 176.43 669.028 175.908 668.448 175.231C667.887 174.554 667.452 173.733 667.143 172.766C666.853 171.799 666.708 170.717 666.708 169.518C666.708 168.319 666.853 167.237 667.143 166.27C667.452 165.303 667.887 164.482 668.448 163.805C669.028 163.128 669.733 162.606 670.565 162.239C671.396 161.872 672.334 161.688 673.378 161.688C674.866 161.688 676.055 162.017 676.945 162.674C677.853 163.312 678.53 164.153 678.975 165.197L677.032 166.183C676.761 165.41 676.316 164.81 675.698 164.385C675.079 163.96 674.306 163.747 673.378 163.747C672.682 163.747 672.073 163.863 671.551 164.095C671.029 164.308 670.594 164.617 670.246 165.023C669.898 165.41 669.637 165.883 669.463 166.444C669.289 166.985 669.202 167.585 669.202 168.242V170.794C669.202 172.109 669.55 173.191 670.246 174.042C670.961 174.873 672.005 175.289 673.378 175.289C675.253 175.289 676.606 174.419 677.438 172.679L679.12 173.81C678.636 174.893 677.911 175.753 676.945 176.391C675.997 177.029 674.808 177.348 673.378 177.348ZM687.851 177.348C686.826 177.348 685.898 177.164 685.067 176.797C684.255 176.43 683.549 175.908 682.95 175.231C682.37 174.535 681.915 173.713 681.587 172.766C681.277 171.799 681.123 170.717 681.123 169.518C681.123 168.339 681.277 167.266 681.587 166.299C681.915 165.332 682.37 164.511 682.95 163.834C683.549 163.138 684.255 162.606 685.067 162.239C685.898 161.872 686.826 161.688 687.851 161.688C688.856 161.688 689.755 161.872 690.548 162.239C691.34 162.606 692.017 163.119 692.578 163.776C693.138 164.414 693.564 165.178 693.854 166.067C694.163 166.956 694.318 167.933 694.318 168.996V170.098H683.559V170.794C683.559 171.432 683.655 172.031 683.849 172.592C684.061 173.133 684.351 173.607 684.719 174.013C685.105 174.419 685.569 174.738 686.111 174.97C686.671 175.202 687.3 175.318 687.996 175.318C688.943 175.318 689.765 175.096 690.461 174.651C691.176 174.206 691.727 173.568 692.114 172.737L693.767 173.926C693.283 174.951 692.529 175.782 691.505 176.42C690.48 177.039 689.262 177.348 687.851 177.348ZM687.851 163.631C687.213 163.631 686.633 163.747 686.111 163.979C685.589 164.192 685.134 164.501 684.748 164.907C684.38 165.313 684.09 165.796 683.878 166.357C683.665 166.898 683.559 167.498 683.559 168.155V168.358H691.824V168.039C691.824 166.705 691.456 165.642 690.722 164.849C690.006 164.037 689.049 163.631 687.851 163.631ZM699.053 177.348C698.435 177.348 697.98 177.193 697.69 176.884C697.42 176.575 697.284 176.169 697.284 175.666V175.289C697.284 174.786 697.42 174.38 697.69 174.071C697.98 173.762 698.435 173.607 699.053 173.607C699.672 173.607 700.117 173.762 700.387 174.071C700.677 174.38 700.822 174.786 700.822 175.289V175.666C700.822 176.169 700.677 176.575 700.387 176.884C700.117 177.193 699.672 177.348 699.053 177.348Z" fill="white"/>
</svg>
