<svg width="112" height="38" viewBox="0 0 112 38" fill="none" xmlns="http://www.w3.org/2000/svg">
<path d="M21.1179 11.6875C20.9588 10.1989 20.2884 9.03977 19.1065 8.21023C17.9361 7.38068 16.4134 6.96591 14.5384 6.96591C13.2202 6.96591 12.0895 7.16477 11.1463 7.5625C10.2031 7.96023 9.48153 8.5 8.98153 9.18182C8.48153 9.86364 8.22585 10.642 8.21449 11.517C8.21449 12.2443 8.37926 12.875 8.70881 13.4091C9.04972 13.9432 9.50994 14.3977 10.0895 14.7727C10.669 15.1364 11.3111 15.4432 12.0156 15.6932C12.7202 15.9432 13.4304 16.1534 14.1463 16.3239L17.419 17.142C18.7372 17.4489 20.0043 17.8636 21.2202 18.3864C22.4474 18.9091 23.544 19.5682 24.5099 20.3636C25.4872 21.1591 26.2599 22.1193 26.8281 23.2443C27.3963 24.3693 27.6804 25.6875 27.6804 27.1989C27.6804 29.2443 27.1577 31.0455 26.1122 32.6023C25.0668 34.1477 23.5554 35.358 21.5781 36.233C19.6122 37.0966 17.2315 37.5284 14.4361 37.5284C11.7202 37.5284 9.36222 37.108 7.36222 36.267C5.37358 35.4261 3.81676 34.1989 2.69176 32.5852C1.57813 30.9716 0.975852 29.0057 0.884943 26.6875H7.10653C7.19744 27.9034 7.57244 28.9148 8.23153 29.7216C8.89063 30.5284 9.74858 31.1307 10.8054 31.5284C11.8736 31.9261 13.0668 32.125 14.3849 32.125C15.7599 32.125 16.9645 31.9205 17.9986 31.5114C19.044 31.0909 19.8622 30.5114 20.4531 29.7727C21.044 29.0227 21.3452 28.1477 21.3565 27.1477C21.3452 26.2386 21.0781 25.4886 20.5554 24.8977C20.0327 24.2955 19.2997 23.7955 18.3565 23.3977C17.4247 22.9886 16.3338 22.625 15.0838 22.3068L11.1122 21.2841C8.23722 20.5455 5.96449 19.4261 4.29403 17.9261C2.63494 16.4148 1.8054 14.4091 1.8054 11.9091C1.8054 9.85227 2.36222 8.05114 3.47585 6.50568C4.60085 4.96023 6.12926 3.76136 8.06108 2.90909C9.9929 2.04545 12.1804 1.61364 14.6236 1.61364C17.1009 1.61364 19.2713 2.04545 21.1349 2.90909C23.0099 3.76136 24.4815 4.94886 25.5497 6.47159C26.6179 7.98295 27.169 9.72159 27.2031 11.6875H21.1179ZM33.0455 37V10.8182H39.2159V37H33.0455ZM36.1477 7.10227C35.1705 7.10227 34.3295 6.77841 33.625 6.13068C32.9205 5.47159 32.5682 4.68182 32.5682 3.76136C32.5682 2.82954 32.9205 2.03977 33.625 1.39204C34.3295 0.732953 35.1705 0.403408 36.1477 0.403408C37.1364 0.403408 37.9773 0.732953 38.6705 1.39204C39.375 2.03977 39.7273 2.82954 39.7273 3.76136C39.7273 4.68182 39.375 5.47159 38.6705 6.13068C37.9773 6.77841 37.1364 7.10227 36.1477 7.10227ZM51.7315 21.6591V37H45.5611V10.8182H51.4588V15.267H51.7656C52.3679 13.8011 53.3281 12.6364 54.6463 11.7727C55.9759 10.9091 57.6179 10.4773 59.5724 10.4773C61.3793 10.4773 62.9531 10.8636 64.294 11.6364C65.6463 12.4091 66.6918 13.5284 67.4304 14.9943C68.1804 16.4602 68.5497 18.2386 68.5384 20.3295V37H62.3679V21.2841C62.3679 19.5341 61.9134 18.1648 61.0043 17.1761C60.1065 16.1875 58.8622 15.6932 57.2713 15.6932C56.1918 15.6932 55.2315 15.9318 54.3906 16.4091C53.5611 16.875 52.9077 17.5511 52.4304 18.4375C51.9645 19.3239 51.7315 20.3977 51.7315 21.6591ZM74.8111 37V10.8182H80.9815V37H74.8111ZM77.9134 7.10227C76.9361 7.10227 76.0952 6.77841 75.3906 6.13068C74.6861 5.47159 74.3338 4.68182 74.3338 3.76136C74.3338 2.82954 74.6861 2.03977 75.3906 1.39204C76.0952 0.732953 76.9361 0.403408 77.9134 0.403408C78.902 0.403408 79.7429 0.732953 80.4361 1.39204C81.1406 2.03977 81.4929 2.82954 81.4929 3.76136C81.4929 4.68182 81.1406 5.47159 80.4361 6.13068C79.7429 6.77841 78.902 7.10227 77.9134 7.10227ZM98.7472 37.5114C96.1903 37.5114 93.9744 36.9489 92.0994 35.8239C90.2244 34.6989 88.7699 33.125 87.7358 31.1023C86.7131 29.0795 86.2017 26.7159 86.2017 24.0114C86.2017 21.3068 86.7131 18.9375 87.7358 16.9034C88.7699 14.8693 90.2244 13.2898 92.0994 12.1648C93.9744 11.0398 96.1903 10.4773 98.7472 10.4773C101.304 10.4773 103.52 11.0398 105.395 12.1648C107.27 13.2898 108.719 14.8693 109.741 16.9034C110.776 18.9375 111.293 21.3068 111.293 24.0114C111.293 26.7159 110.776 29.0795 109.741 31.1023C108.719 33.125 107.27 34.6989 105.395 35.8239C103.52 36.9489 101.304 37.5114 98.7472 37.5114ZM98.7812 32.5682C100.168 32.5682 101.327 32.1875 102.259 31.4261C103.19 30.6534 103.884 29.6193 104.338 28.3239C104.804 27.0284 105.037 25.5852 105.037 23.9943C105.037 22.392 104.804 20.9432 104.338 19.6477C103.884 18.3409 103.19 17.3011 102.259 16.5284C101.327 15.7557 100.168 15.3693 98.7812 15.3693C97.3608 15.3693 96.179 15.7557 95.2358 16.5284C94.304 17.3011 93.6051 18.3409 93.1392 19.6477C92.6847 20.9432 92.4574 22.392 92.4574 23.9943C92.4574 25.5852 92.6847 27.0284 93.1392 28.3239C93.6051 29.6193 94.304 30.6534 95.2358 31.4261C96.179 32.1875 97.3608 32.5682 98.7812 32.5682Z" fill="#F5F5F5"/>
</svg>
